<svg width="31" height="30" viewBox="0 0 31 30" fill="none" xmlns="http://www.w3.org/2000/svg">
  <defs>
    <g id="discord">
      <path class="path" fill-rule="evenodd" clip-rule="evenodd" d="M15 30C23.2843 30 30 23.2843 30 15C30 6.71573 23.2843 0 15 0C6.71573 0 0 6.71573 0 15C0 23.2843 6.71573 30 15 30Z" fill="#A5CD3C"/>
      <path d="M12.3389 8.57109C12.0833 8.57213 9.96851 8.63286 7.73752 10.3102C7.73752 10.3102 5.35779 14.6409 5.35779 19.9748C5.35779 19.9748 6.74594 22.3826 10.3982 22.4996C10.3982 22.4996 11.0096 21.7639 11.5054 21.1285C9.40661 20.4931 8.61337 19.1722 8.61337 19.1722C8.61337 19.1722 8.77866 19.2893 9.07613 19.4565C9.09265 19.4565 9.10913 19.4732 9.14218 19.4899C9.19176 19.5233 9.24135 19.5401 9.29093 19.5735C9.70408 19.8076 10.1172 19.9915 10.4973 20.142C11.1749 20.4263 11.9847 20.6771 12.9266 20.861C14.1661 21.0951 15.6203 21.1787 17.2068 20.8777C17.9835 20.7272 18.7768 20.5099 19.6031 20.1587C20.1815 19.9414 20.826 19.6237 21.5036 19.1722C21.5036 19.1722 20.6773 20.5266 18.5124 21.1453C19.0082 21.764 19.6031 22.4829 19.6031 22.4829C23.2554 22.3659 24.6435 19.9581 24.6435 19.9748C24.6435 14.6409 22.2638 10.3102 22.2638 10.3102C19.9006 8.52104 17.6365 8.57122 17.6365 8.57122L17.4052 8.83874C20.2146 9.6915 21.5201 10.9456 21.5201 10.9456C19.8014 10.0092 18.1158 9.54101 16.5458 9.35708C15.356 9.22332 14.2156 9.2568 13.2076 9.39057C13.1084 9.39057 13.0258 9.40726 12.9266 9.42398C12.3482 9.49087 10.9435 9.6915 9.17527 10.4774C8.56382 10.7449 8.20021 10.9456 8.20021 10.9456C8.20021 10.9456 9.55534 9.62461 12.53 8.77184L12.3647 8.57122C12.3647 8.57122 12.356 8.57102 12.3389 8.57108V8.57109ZM11.9186 14.7412C12.8605 14.7412 13.6207 15.5605 13.6042 16.5805C13.6042 17.6004 12.8605 18.4198 11.9186 18.4198C10.9931 18.4198 10.2329 17.6004 10.2329 16.5805C10.2329 15.5605 10.9766 14.7412 11.9186 14.7412ZM17.9505 14.7412C18.876 14.7412 19.6362 15.5605 19.6362 16.5805C19.6362 17.6004 18.8925 18.4198 17.9505 18.4198C17.0251 18.4198 16.2649 17.6004 16.2649 16.5805C16.2649 15.5605 17.0085 14.7412 17.9505 14.7412Z" fill="white"/>
    </g>
    <g id="discordBlack">
      <path class="path" fill-rule="evenodd" clip-rule="evenodd" d="M15 30C23.2843 30 30 23.2843 30 15C30 6.71573 23.2843 0 15 0C6.71573 0 0 6.71573 0 15C0 23.2843 6.71573 30 15 30Z" fill="#000000"/>
      <path d="M12.3389 8.57109C12.0833 8.57213 9.96851 8.63286 7.73752 10.3102C7.73752 10.3102 5.35779 14.6409 5.35779 19.9748C5.35779 19.9748 6.74594 22.3826 10.3982 22.4996C10.3982 22.4996 11.0096 21.7639 11.5054 21.1285C9.40661 20.4931 8.61337 19.1722 8.61337 19.1722C8.61337 19.1722 8.77866 19.2893 9.07613 19.4565C9.09265 19.4565 9.10913 19.4732 9.14218 19.4899C9.19176 19.5233 9.24135 19.5401 9.29093 19.5735C9.70408 19.8076 10.1172 19.9915 10.4973 20.142C11.1749 20.4263 11.9847 20.6771 12.9266 20.861C14.1661 21.0951 15.6203 21.1787 17.2068 20.8777C17.9835 20.7272 18.7768 20.5099 19.6031 20.1587C20.1815 19.9414 20.826 19.6237 21.5036 19.1722C21.5036 19.1722 20.6773 20.5266 18.5124 21.1453C19.0082 21.764 19.6031 22.4829 19.6031 22.4829C23.2554 22.3659 24.6435 19.9581 24.6435 19.9748C24.6435 14.6409 22.2638 10.3102 22.2638 10.3102C19.9006 8.52104 17.6365 8.57122 17.6365 8.57122L17.4052 8.83874C20.2146 9.6915 21.5201 10.9456 21.5201 10.9456C19.8014 10.0092 18.1158 9.54101 16.5458 9.35708C15.356 9.22332 14.2156 9.2568 13.2076 9.39057C13.1084 9.39057 13.0258 9.40726 12.9266 9.42398C12.3482 9.49087 10.9435 9.6915 9.17527 10.4774C8.56382 10.7449 8.20021 10.9456 8.20021 10.9456C8.20021 10.9456 9.55534 9.62461 12.53 8.77184L12.3647 8.57122C12.3647 8.57122 12.356 8.57102 12.3389 8.57108V8.57109ZM11.9186 14.7412C12.8605 14.7412 13.6207 15.5605 13.6042 16.5805C13.6042 17.6004 12.8605 18.4198 11.9186 18.4198C10.9931 18.4198 10.2329 17.6004 10.2329 16.5805C10.2329 15.5605 10.9766 14.7412 11.9186 14.7412ZM17.9505 14.7412C18.876 14.7412 19.6362 15.5605 19.6362 16.5805C19.6362 17.6004 18.8925 18.4198 17.9505 18.4198C17.0251 18.4198 16.2649 17.6004 16.2649 16.5805C16.2649 15.5605 17.0085 14.7412 17.9505 14.7412Z" fill="white"/>
    </g>
  </defs>
</svg>