<svg width="31" height="34" viewBox="0 0 31 34" fill="none" xmlns="http://www.w3.org/2000/svg">
<g opacity="0.5">
<path d="M10.3934 14.4112L8.30083 14.6646L7.8838 14.7147C7.8838 14.7147 7.84549 13.7259 8.31999 12.2243L8.69871 12.2567L10.7736 12.4336C10.7736 12.4336 10.3551 13.4798 10.3934 14.4112Z" fill="#221C5A"/>
<path d="M8.69871 12.2567C8.5263 12.8698 8.35831 14.1223 8.30083 14.6646L7.8838 14.7147C7.8838 14.7147 7.84549 13.7259 8.31999 12.2243L8.69871 12.2567Z" fill="#27218F"/>
<path d="M9.17614 14.4495C9.17614 14.4495 8.05913 14.4082 7.04676 15.0581C5.56429 16.0086 5.10747 19.2417 5.3742 22.2081C5.64092 25.1745 6.62972 29.3949 9.67127 29.6617C9.67127 29.6617 7.77031 22.6266 8.37891 20.4206C8.98752 18.2146 10.6984 15.0581 10.6984 15.0581L9.17761 14.4495H9.17614Z" fill="#27218F"/>
<path d="M8.69135 15.0389C8.69135 15.0389 8.99934 14.7442 9.06565 14.4495C8.75914 14.4583 7.86907 14.5305 7.04679 15.0566C5.67043 15.9393 5.17824 18.7878 5.32855 21.5641C5.55843 22.1801 5.89 22.5603 6.26725 22.4527C6.86554 22.2818 6.6386 20.3425 6.6666 19.4583C6.6946 18.5741 8.69135 15.0375 8.69135 15.0375V15.0389Z" fill="#3E28BB"/>
<path d="M11.4574 14.4495C11.4574 14.4495 9.59323 14.2594 8.71937 14.5261C7.84404 14.7928 6.78008 16.1987 6.51335 17.911C6.24663 19.6219 6.24663 22.6649 7.04533 25.288C7.84403 27.9125 8.68105 30.2703 10.6587 29.9652C10.6587 29.9652 8.94778 26.657 8.68105 25.1362C8.41433 23.6154 8.49096 20.4972 9.28966 19.1282C10.0884 17.7592 11.4574 14.451 11.4574 14.451V14.4495Z" fill="#E046E3"/>
<path d="M14.2336 29.2048C14.2336 29.2048 12.6745 30.6505 10.6586 29.9652C8.64272 29.28 7.46382 25.5532 7.04531 21.3328C6.6268 17.1108 8.03411 15.4383 10.3153 14.6013C12.5964 13.7642 14.4989 16.6172 15.1443 18.6316C15.7913 20.6475 15.9814 24.1459 15.7913 25.5915C15.6012 27.0371 14.7641 28.6714 14.2322 29.2048H14.2336Z" fill="#27218F"/>
<path d="M15.7927 25.5915C15.9828 24.1459 15.7927 20.6475 15.1458 18.6316C14.7568 17.4174 13.9109 15.8995 12.8013 15.0669C12.0409 14.868 11.1272 14.8253 10.3448 15.2939C8.63388 16.321 8.03412 18.0893 8.06359 20.6269C8.09012 23.0097 8.82103 28.5579 11.3866 30.1259C13.0371 30.3101 14.2336 29.2019 14.2336 29.2019C14.7656 28.6699 15.6026 27.0342 15.7927 25.5886V25.5915Z" fill="#221C5A"/>
<path d="M12.8837 27.018C12.7747 27.0401 12.6627 27.043 12.5463 27.0224C11.9318 26.9178 11.2524 26.1736 10.9164 24.4215C10.5171 22.3407 10.3167 19.2888 10.4022 18.3752C10.4611 17.7519 10.7588 17.3938 11.024 17.186C11.1478 17.0887 11.2628 17.0239 11.3438 16.9782C11.3438 16.9782 11.9421 16.5509 12.6848 17.1772C13.426 17.8049 14.2807 21.713 14.4237 23.7377C14.5666 25.7625 13.569 26.8751 12.8837 27.018Z" fill="#3E28BB"/>
<path d="M13.7105 23.9941C13.5675 21.9694 12.7128 18.0613 11.9716 17.4336C11.6621 17.1727 11.3792 17.0961 11.1523 17.0932C11.111 17.1212 11.0683 17.1506 11.024 17.186C11.2318 17.2081 11.4779 17.2965 11.7432 17.5205C12.4844 18.1468 13.3406 22.0548 13.4835 24.0796C13.5867 25.5488 13.0886 26.5376 12.5463 27.0224C12.5831 27.0283 12.62 27.0327 12.6568 27.0342C13.2418 26.5906 13.8225 25.5694 13.7105 23.9941Z" fill="#A2FDFA"/>
<path opacity="0.46" d="M12.5463 27.0224C11.9318 26.9178 11.2524 26.1736 10.9164 24.4215C10.5171 22.3407 10.3167 19.2888 10.4022 18.3752C10.4611 17.7519 10.7588 17.3938 11.024 17.186C11.2318 17.2081 11.4779 17.2965 11.7431 17.5205C12.4844 18.1468 13.3406 22.0548 13.4835 24.0796C13.5866 25.5488 13.0886 26.5376 12.5463 27.0224Z" fill="black"/>
<path d="M9.68899 22.8241C9.66246 22.8241 9.63888 22.8049 9.63446 22.7769C9.63446 22.7725 9.5711 22.3348 9.521 21.7085C9.51805 21.6776 9.54163 21.6511 9.5711 21.6496C9.60205 21.6481 9.62857 21.6702 9.63005 21.6997C9.67868 22.323 9.74204 22.7578 9.74204 22.7622C9.74647 22.7931 9.72583 22.8196 9.69489 22.8241C9.69194 22.8241 9.68899 22.8241 9.68752 22.8241H9.68899Z" fill="#27218F"/>
<path d="M9.53277 21.0233C9.5033 21.0233 9.47825 20.9997 9.47825 20.9703C9.43993 20.0566 9.45615 18.7775 9.75235 17.8742C10.3506 16.0484 11.6121 16.1044 12.1263 16.2119C12.1558 16.2178 12.175 16.2473 12.1691 16.2768C12.1632 16.3062 12.1337 16.3254 12.1042 16.3195C11.6194 16.2178 10.4287 16.1677 9.85844 17.9081C9.56667 18.7952 9.55193 20.061 9.59024 20.9644C9.59024 20.9953 9.56814 21.0204 9.5372 21.0218H9.53425L9.53277 21.0233Z" fill="#27218F"/>
<path d="M12.1425 27.6251C12.1425 27.6251 12.1322 27.6251 12.1278 27.6237C10.3653 27.1256 9.7921 24.0044 9.76853 23.8718C9.76263 23.8423 9.78326 23.8129 9.81273 23.8084C9.84368 23.804 9.87168 23.8232 9.8761 23.8527C9.88199 23.8851 10.4611 27.0371 12.1558 27.5175C12.1853 27.5264 12.2029 27.5559 12.1941 27.5853C12.1867 27.6104 12.1646 27.6251 12.1411 27.6251H12.1425Z" fill="#27218F"/>
<path d="M29.0096 14.0398L25.1782 12.7136C25.1782 12.7136 25.1487 10.7035 23.6943 8.3649C23.233 7.62367 22.676 6.95022 22.0026 6.39614C21.7506 6.18836 21.4824 5.99679 21.1965 5.82438C20.3506 5.79785 18.4968 5.86711 16.7255 6.79549C15.3271 7.52788 14.1172 8.70383 13.2389 9.91662C12.6112 10.7831 12.1529 11.6688 11.9142 12.4247L8.00464 12.3009C7.9958 12.3039 7.98695 12.3039 7.97811 12.3009C7.77917 12.2155 7.46529 11.6157 7.43582 11.4728C7.40782 11.3313 8.86229 8.16448 11.0875 5.99679C13.3112 3.82909 16.3232 3.20133 19.2528 3.28828C22.1823 3.37375 25.5378 6.02626 26.8213 7.62219C28.1048 9.2196 29.0288 11.6157 29.0096 14.0398Z" fill="#693FBD"/>
<path d="M16.6813 4.89157C16.6209 4.89157 16.5649 4.89157 16.5104 4.89157C15.4332 5.15388 14.0922 5.61807 13.1122 6.28414C11.6858 7.25379 10.1738 9.22107 10.1738 9.22107C10.1738 9.22107 11.4574 9.73536 11.9996 9.79136C12.203 9.81199 12.676 9.8621 13.239 9.91809C14.1172 8.7053 15.3271 7.52936 16.7255 6.79697C18.4968 5.86858 20.3507 5.79932 21.1965 5.82585C21.1965 5.82585 19.4709 4.8621 16.6813 4.89305V4.89157Z" fill="#502B9C"/>
<path d="M14.1953 9.0074C14.1732 9.0074 14.1511 9.0015 14.1305 8.98677C13.8785 8.80698 12.9118 8.44595 12.4889 8.31774L12.315 8.26469C11.7639 8.09965 11.394 7.98176 11.2835 7.87123C11.1729 7.76071 10.3595 6.75865 10.2681 6.64519C10.2298 6.59803 10.2372 6.52729 10.2844 6.48898C10.3315 6.45066 10.4008 6.45803 10.4406 6.50519C10.6881 6.81023 11.3498 7.62367 11.4411 7.71356C11.5207 7.79314 12.0586 7.95523 12.3798 8.05102L12.5552 8.10407C12.984 8.23522 13.9743 8.60068 14.2602 8.80404C14.3103 8.83941 14.3206 8.90866 14.2852 8.95877C14.2631 8.98824 14.2292 9.00445 14.1953 9.00445V9.0074Z" fill="#A2FDFA"/>
<path d="M29.0612 12.6767C29.0288 12.6767 28.9964 12.6664 28.9699 12.6443C28.1461 11.9841 26.3851 11.601 25.865 11.4993L25.8429 11.4949C25.75 11.4757 25.6616 11.517 25.5806 11.5641C25.526 11.5995 25.2873 11.8574 25.1002 12.0755C25.0471 12.1374 24.9528 12.1433 24.8924 12.0902C24.8305 12.0372 24.8246 11.9443 24.8776 11.8824C25.0088 11.7306 25.3256 11.3726 25.4347 11.3092C25.5526 11.2414 25.7117 11.1677 25.9018 11.206L25.9224 11.2105C26.6106 11.3446 28.3038 11.7321 29.1556 12.4144C29.2189 12.4645 29.2292 12.5574 29.1791 12.6222C29.1497 12.659 29.1069 12.6782 29.0642 12.6782L29.0612 12.6767Z" fill="#A2FDFA"/>
<path d="M24.6492 16.6275C24.6492 16.6275 24.8703 15.7242 24.8555 14.5394C24.8408 13.356 24.7524 12.9272 24.7524 12.9272C24.7524 12.9272 24.8673 12.4851 25.4671 12.4277C26.0669 12.3702 28.0209 12.9125 29.2189 14.0103C29.2189 14.0103 29.493 15.9496 29.0288 18.0893L27.3799 17.2479L24.6492 16.626V16.6275Z" fill="#27218F"/>
<path d="M27.7232 17.4247L29.0288 18.0908C29.4031 16.3667 29.2985 14.7722 29.2425 14.2196C28.7768 13.8423 28.1358 13.4857 28.1358 13.4857C28.1786 14.9977 27.7232 17.4247 27.7232 17.4247Z" fill="#221C5A"/>
<path d="M24.7641 16.9635C24.7641 16.9635 28.3097 18.2205 28.5499 18.2544C28.7901 18.2868 29.2042 18.2544 28.9492 17.9066C28.6943 17.5588 25.4671 16.5995 25.2269 16.517C24.9867 16.4344 24.3162 16.5671 24.7641 16.9635Z" fill="#221C5A"/>
<path d="M25.3521 16.1456C25.3521 16.1456 25.3462 16.1456 25.3448 16.1456C25.3256 16.1412 25.3124 16.122 25.3168 16.1014C25.3168 16.1014 25.3492 15.9511 25.3831 15.6829C25.386 15.6623 25.4022 15.649 25.4243 15.6505C25.445 15.6534 25.4582 15.6711 25.4568 15.6917C25.4214 15.9644 25.3905 16.1103 25.389 16.1176C25.3846 16.1353 25.3698 16.1471 25.3536 16.1471L25.3521 16.1456Z" fill="#3E28BB"/>
<path d="M25.4715 15.1922C25.4715 15.1922 25.47 15.1922 25.4685 15.1922C25.4479 15.1922 25.4332 15.173 25.4346 15.1524C25.4906 14.3905 25.4759 13.5491 25.389 12.718C25.3875 12.6973 25.4022 12.6797 25.4214 12.6767C25.442 12.6767 25.4597 12.69 25.4626 12.7091C25.5496 13.5447 25.5658 14.3905 25.5083 15.1568C25.5083 15.176 25.4906 15.1907 25.4715 15.1907V15.1922Z" fill="#3E28BB"/>
<path d="M25.3005 18.8983C25.3005 18.8983 25.6424 18.0805 25.719 17.1492C25.719 17.1492 25.8517 16.9399 25.9858 16.9591C26.1199 16.9782 27.7158 17.435 27.8308 17.5868C27.9442 17.7386 27.6981 19.2977 27.4697 19.9255C27.4697 19.9255 26.6902 19.0501 25.302 18.8983H25.3005Z" fill="#27218F"/>
<path d="M25.6615 18.7259C25.6615 18.7259 25.6527 18.7259 25.6483 18.723C25.6291 18.7156 25.6203 18.6935 25.6276 18.6743C25.6276 18.6714 25.7647 18.331 25.8561 17.8801C25.8605 17.8609 25.8811 17.8476 25.8988 17.8506C25.9179 17.855 25.9312 17.8742 25.9283 17.8933C25.8354 18.3502 25.6969 18.6965 25.6954 18.6994C25.6895 18.7141 25.6763 18.723 25.6615 18.723V18.7259Z" fill="#3E28BB"/>
<path d="M25.9489 17.578C25.9489 17.578 25.946 17.578 25.9445 17.578C25.9239 17.575 25.9106 17.5573 25.9121 17.5367C25.9268 17.4115 25.9357 17.2906 25.9386 17.1772C25.9386 17.1565 25.9548 17.1403 25.9755 17.1403C25.9961 17.1403 26.0123 17.158 26.0123 17.1772C26.0108 17.2936 26.002 17.4173 25.9858 17.5441C25.9828 17.5632 25.9681 17.5765 25.9489 17.5765V17.578Z" fill="#3E28BB"/>
<path d="M22.1956 6.5155C22.1367 6.60834 22.1529 6.72918 22.2339 6.80286C22.6701 7.20958 24.045 8.63899 24.8069 11.1589C24.8069 11.1589 24.8201 11.2105 24.9306 11.2105C24.9306 11.2105 25.327 10.5886 25.4405 10.5385C25.554 10.4884 25.5687 10.481 25.9327 10.5665C26.2967 10.652 28.093 10.9555 28.6707 11.3888V11.7793C28.6707 11.7793 28.9639 11.6791 29.0494 11.5302C29.1349 11.3799 28.7856 10.3042 28.4511 9.54085C28.1166 8.77751 26.6474 6.9458 25.6704 6.1751C25.6704 6.1751 23.4718 5.61217 23.2861 5.56944C23.1004 5.5267 22.8366 5.67112 22.651 5.8568C22.5065 6.00121 22.3577 6.26351 22.1956 6.5155Z" fill="#27218F"/>
<path d="M24.9307 11.2105C24.9307 11.2105 25.3271 10.5886 25.4405 10.5385C25.554 10.4884 25.5687 10.481 25.9327 10.5665C26.2967 10.652 28.0931 10.9555 28.6707 11.3888V11.7793C28.6707 11.7793 28.964 11.6791 29.0494 11.5302C29.1305 11.3873 28.8181 10.4073 28.4998 9.65431C28.3613 9.61011 28.2581 9.59095 28.2581 9.59095L26.7182 9.81936L28.2581 10.8317C28.2581 10.8317 26.8744 10.5326 26.5045 10.4324C26.1331 10.3322 25.4921 10.2894 25.386 10.3469C25.2799 10.4044 24.8069 11.1604 24.8069 11.1604C24.8069 11.1604 24.8275 11.1766 24.8644 11.2031C24.882 11.2075 24.9027 11.2119 24.9321 11.2105H24.9307Z" fill="#221C5A"/>
<path d="M25.3006 10.0935C25.2844 10.0935 25.2696 10.0831 25.2652 10.0669C25.2578 10.0404 24.4356 7.39672 23.1432 5.97321C23.1299 5.95847 23.1314 5.9349 23.1461 5.92163C23.1609 5.90837 23.1844 5.90984 23.1977 5.92458C24.5004 7.35988 25.3271 10.0183 25.3359 10.0463C25.3418 10.0655 25.3315 10.0861 25.3109 10.092C25.3079 10.092 25.3035 10.0935 25.3006 10.0935Z" fill="#3E28BB"/>
<path d="M30.2829 2.96408C29.6551 2.96408 24.4075 5.85238 24.4075 5.85238C24.4075 5.85238 25.9092 7.83587 26.7167 9.81789C26.7167 9.81789 29.2086 7.06959 30.2814 3.4769C30.2814 3.4769 30.4523 2.96408 30.2814 2.96408H30.2829Z" fill="#27218F"/>
<path d="M30.3374 2.9965C30.4051 3.10849 30.2828 3.4769 30.2828 3.4769C29.21 7.07106 26.7181 9.81789 26.7181 9.81789C27.6215 10.1318 28.7974 10.4294 28.7974 10.4294C29.9542 8.40763 30.3403 6.17657 30.5496 4.63516C30.7131 3.4268 30.4567 3.08492 30.3388 2.99355L30.3374 2.9965Z" fill="#221C5A"/>
<path d="M29.8069 3.51669C29.8069 3.51669 28.2287 7.56619 26.9334 8.93519C26.9334 8.93519 25.5275 6.51992 24.9955 6.0071C24.9955 6.0071 29.2926 3.87772 29.8069 3.51669Z" fill="#E046E3"/>
<path d="M26.1037 8.56826C26.0904 8.56826 26.0772 8.56089 26.0713 8.5491C25.4214 7.32305 24.6139 6.22962 24.605 6.21931C24.5932 6.2031 24.5962 6.17952 24.6124 6.16773C24.6286 6.15594 24.6522 6.15889 24.664 6.1751C24.6713 6.18689 25.4833 7.28326 26.1361 8.51521C26.1449 8.53289 26.139 8.555 26.1214 8.56531C26.1155 8.56826 26.1096 8.56973 26.1037 8.56973V8.56826Z" fill="#3E28BB"/>
<path d="M26.5885 9.59979C26.5738 9.59979 26.5605 9.59095 26.5546 9.57622C26.4913 9.41854 26.4176 9.25055 26.3365 9.07813C26.3277 9.06045 26.3365 9.03835 26.3542 9.0295C26.3719 9.02066 26.394 9.0295 26.4029 9.04719C26.4854 9.22255 26.5591 9.39054 26.6239 9.54969C26.6313 9.56885 26.6224 9.58948 26.6033 9.59832C26.5988 9.59979 26.5944 9.60127 26.59 9.60127L26.5885 9.59979Z" fill="#3E28BB"/>
<path d="M30.5481 4.63811C30.5879 4.34633 30.6026 4.10466 30.6012 3.90572C30.221 6.02037 28.2242 9.45243 28.2036 9.4878C28.1829 9.52316 28.1947 9.56737 28.2301 9.58801C28.2419 9.59537 28.2551 9.59832 28.2669 9.59832C28.292 9.59832 28.317 9.58505 28.3303 9.56148C28.4055 9.43327 29.8835 6.89128 30.5216 4.82673C30.5304 4.76337 30.5393 4.69853 30.5481 4.63664V4.63811Z" fill="#A2FDFA"/>
<path d="M15.7824 5.01388C15.7648 5.01388 15.75 5.00209 15.7456 4.98441C15.7412 4.96525 15.7544 4.94462 15.7751 4.94167C15.9549 4.90483 16.1361 4.87389 16.3159 4.84884C16.338 4.84737 16.3542 4.86063 16.3571 4.87978C16.3601 4.90042 16.3454 4.9181 16.3262 4.92105C16.1479 4.9461 15.9681 4.97704 15.7898 5.01241C15.7869 5.01241 15.7854 5.01241 15.7824 5.01241V5.01388Z" fill="#3E28BB"/>
<path d="M17.6332 3.31922C17.4107 2.95524 17.0364 2.39821 16.503 1.79108C15.579 0.73449 14.353 0.037468 14.353 0.037468L15.8914 3.55353C16.4647 3.43711 17.0467 3.36048 17.6332 3.32069V3.31922Z" fill="#221C5A"/>
<path d="M16.6547 3.4209C16.335 2.52936 15.5849 1.24731 15.1855 0.594494C15.103 0.534076 15.0249 0.476604 14.9512 0.423553C15.274 0.942268 16.1788 2.43357 16.5427 3.43564C16.5796 3.42974 16.6179 3.42532 16.6547 3.41942V3.4209Z" fill="#A2FDFA"/>
<path d="M16.2097 3.49163L16.2215 3.48869C15.4287 1.64077 14.4679 0.131779 14.3545 0.0374673C14.241 -0.0568444 14.1658 0.0566251 14.1658 0.0566251C13.6 1.35783 12.6185 4.65874 12.6185 4.65874L13.2699 4.44802C14.1968 3.9794 15.19 3.67289 16.2097 3.49311V3.49163Z" fill="#27218F"/>
<path d="M13.0945 4.41707C13.0945 4.41707 14.1983 0.455975 14.297 0.455975C14.3957 0.455975 15.4847 2.46452 15.7677 3.46953C15.7677 3.46953 13.9713 3.89393 13.0945 4.41707Z" fill="#E046E3"/>
<path d="M18.6737 6.00711C18.6737 6.00711 18.6457 6.09258 18.6457 6.1972C18.6457 6.30183 17.7998 6.36814 16.839 6.87212C15.8782 7.3761 15.3079 7.88008 15.2607 7.94639C15.2136 8.0127 15.0603 8.10701 15.0043 8.10701C15.0043 8.10701 12.5861 6.87654 12.2384 6.65108C12.2192 6.63929 12.2059 6.63045 12.2 6.62455C12.1072 6.53319 11.867 5.75364 11.7933 5.38082C11.7742 5.2924 11.7653 5.22609 11.7712 5.19809C11.8007 5.05662 13.569 3.51521 16.4205 3.2308L16.976 3.37964C16.8051 3.3988 16.6342 3.42238 16.4632 3.4489H16.4588C16.4588 3.4489 16.6312 4.74274 16.6386 4.81789C16.6415 4.84589 16.6548 4.868 16.6813 4.89157C16.7241 4.93283 16.8081 4.97705 16.9422 5.05662C17.1514 5.17893 18.1829 5.8008 18.4939 6.12205L18.6722 6.00711H18.6737Z" fill="#27218F"/>
<path d="M16.9436 5.05662C16.8095 4.97705 16.7255 4.93284 16.6828 4.89158C16.671 4.87979 16.6607 4.86947 16.6548 4.85769C16.5885 4.87095 16.5369 4.88421 16.5369 4.88421C14.5401 4.92252 12.4874 6.38583 12.3724 6.51993C12.3238 6.5774 12.3238 6.64813 12.3415 6.7115C12.9103 7.04012 15.0073 8.10702 15.0073 8.10702C15.0633 8.10702 15.2165 8.01271 15.2637 7.94639C15.3108 7.88008 15.8811 7.3761 16.8419 6.87212C17.8027 6.36814 18.6486 6.30183 18.6486 6.19721C18.6486 6.09258 18.6766 6.00711 18.6766 6.00711L18.4983 6.12205C18.1873 5.8008 17.1558 5.17894 16.9466 5.05662H16.9436Z" fill="#221C5A"/>
<path d="M12.5994 6.40498C12.5891 6.40498 12.5788 6.40056 12.5714 6.39172C12.5581 6.37551 12.5611 6.35341 12.5773 6.34014C12.5876 6.33278 13.5911 5.5267 15.218 5.07577C15.2387 5.06988 15.2578 5.08167 15.2637 5.10083C15.2696 5.11998 15.2578 5.14062 15.2387 5.14651C13.628 5.59302 12.6333 6.38877 12.6245 6.39614C12.6171 6.40204 12.6097 6.40498 12.6009 6.40498H12.5994Z" fill="#3E28BB"/>
<path d="M13.6118 9.63369C12.7983 10.5606 12.1426 12.1433 12.0998 12.3009C12.0571 12.4571 11.9996 12.5146 11.9142 12.5146C11.8375 12.5146 8.80778 12.435 8.06655 12.3761C7.97666 12.3702 7.47857 11.9016 7.3651 11.6879C7.25016 11.4728 7.27963 11.3446 7.27963 11.3446C7.69224 10.1892 9.03324 8.13649 9.11871 8.10701C9.20418 8.07754 9.31323 8.10701 9.31323 8.10701L9.25281 8.19396C9.25281 8.19396 10.2888 8.92488 10.3787 8.96172C10.4126 8.97645 10.8443 9.06487 11.3763 9.17244C12.284 9.35664 13.4821 9.59243 13.4821 9.59243L13.5469 9.5099C13.6177 9.56442 13.6118 9.63369 13.6118 9.63369Z" fill="#27218F"/>
<path d="M13.6117 9.63369C12.7983 10.5606 12.1425 12.1433 12.0998 12.3009C12.057 12.4571 11.9996 12.5146 11.9141 12.5146C11.8375 12.5146 8.8077 12.435 8.06647 12.3761C8.90496 10.9025 10.299 9.06192 10.299 9.06192L11.3762 9.17245C12.284 9.35665 13.482 9.59243 13.482 9.59243L13.5469 9.5099C13.6176 9.56443 13.6117 9.63369 13.6117 9.63369Z" fill="#221C5A"/>
<path d="M8.31408 11.9944C8.31408 11.9944 8.30081 11.993 8.29492 11.9885C8.27724 11.9782 8.27281 11.9546 8.28313 11.9384C8.28313 11.9384 8.37007 11.7984 8.51006 11.5789C8.52185 11.5612 8.54396 11.5568 8.56165 11.5671C8.57933 11.5774 8.58375 11.601 8.57344 11.6187C8.43344 11.8382 8.34649 11.9782 8.34649 11.9782C8.33913 11.99 8.32734 11.9959 8.31555 11.9959L8.31408 11.9944Z" fill="#3E28BB"/>
<path d="M8.74876 11.3107C8.74876 11.3107 8.73551 11.3092 8.72814 11.3048C8.71045 11.293 8.70603 11.2709 8.71782 11.2532C9.11865 10.6343 9.67862 9.79432 10.0736 9.30213C10.0868 9.28592 10.1089 9.28297 10.1251 9.29623C10.1413 9.30949 10.1428 9.3316 10.131 9.34781C9.73756 9.83705 9.17906 10.6755 8.77971 11.293C8.77234 11.3033 8.76055 11.3092 8.74876 11.3092V11.3107Z" fill="#3E28BB"/>
<path d="M14.7096 30.7831C14.7096 30.7831 13.1697 29.9844 13.3406 27.2464C13.5116 24.5084 16.2496 20.2865 18.7591 18.6331C21.2687 16.9782 23.9507 17.2066 24.8629 18.7466C25.7751 20.2865 24.521 21.3136 23.4939 22.3407C22.4668 23.3678 14.7096 30.7831 14.7096 30.7831Z" fill="#27218F"/>
<path d="M24.8629 18.7466C24.465 18.0761 23.7311 17.6531 22.8234 17.5279C21.0285 17.7047 19.0966 18.6169 17.4668 20.1922C15.2224 22.3599 14.4237 25.3263 15.1473 26.0867C15.6925 26.6614 18.345 26.3018 19.6079 26.0926C21.3792 24.3935 23.0547 22.7799 23.4939 22.3407C24.521 21.3136 25.775 20.2865 24.8629 18.7466Z" fill="#3E28BB"/>
<path d="M16.9349 24.0206C16.9349 24.0206 16.9231 24.0206 16.9172 24.0177C16.4427 23.8497 15.8473 23.7362 15.8414 23.7348C15.8119 23.7289 15.7913 23.6994 15.7972 23.6699C15.8031 23.6405 15.8311 23.6198 15.8621 23.6257C15.8679 23.6257 16.4707 23.7421 16.954 23.9131C16.9835 23.9234 16.9982 23.9543 16.9879 23.9838C16.9805 24.0059 16.9584 24.0206 16.9363 24.0206H16.9349Z" fill="#7465D1"/>
<path d="M17.6186 22.9847C17.6068 22.9847 17.5935 22.9803 17.5832 22.9714C17.2664 22.7106 16.702 22.3717 16.6961 22.3672C16.6695 22.351 16.6622 22.3171 16.6769 22.2921C16.6931 22.2656 16.727 22.2582 16.7521 22.2729C16.7756 22.2862 17.3297 22.6207 17.6525 22.886C17.676 22.9051 17.679 22.9405 17.6598 22.9641C17.6495 22.9773 17.6333 22.9847 17.6171 22.9847H17.6186Z" fill="#7465D1"/>
<path d="M20.3182 20.285C20.3064 20.285 20.2961 20.2821 20.2858 20.2747L19.6006 19.7796C19.5755 19.7619 19.5696 19.7265 19.5888 19.7029C19.6065 19.6779 19.6418 19.6735 19.6654 19.6911L20.3507 20.1863C20.3757 20.204 20.3801 20.2393 20.3624 20.2629C20.3521 20.2776 20.3344 20.2865 20.3182 20.2865V20.285Z" fill="#7465D1"/>
<path d="M20.946 19.9623C20.9254 19.9623 20.9062 19.9505 20.8959 19.9313C20.8193 19.7796 20.6174 19.283 20.6085 19.2623C20.5967 19.2343 20.61 19.2019 20.6395 19.1901C20.6689 19.1783 20.6999 19.1916 20.7117 19.2211C20.7132 19.227 20.9209 19.7339 20.9946 19.8827C21.0079 19.9107 20.9976 19.9431 20.9696 19.9564C20.9622 19.9608 20.9534 19.9623 20.9445 19.9623H20.946Z" fill="#7465D1"/>
<path d="M23.0371 18.8969C23.0105 18.8969 22.9884 18.8792 22.9825 18.8527C22.9634 18.7583 22.8499 18.2647 22.8499 18.2647L22.9575 18.2396C22.9575 18.2396 23.0724 18.7348 23.0916 18.8306C23.0975 18.86 23.0783 18.8895 23.0489 18.8954C23.0459 18.8954 23.0415 18.8954 23.0385 18.8954L23.0371 18.8969Z" fill="#7465D1"/>
<path d="M15.6218 26.7689C15.6218 26.7689 15.6115 26.7689 15.6071 26.7675C15.3934 26.71 14.8025 26.377 14.7774 26.3637C14.7509 26.349 14.7406 26.3151 14.7568 26.2885C14.7715 26.262 14.8054 26.2532 14.8319 26.2679C14.8378 26.2709 15.4361 26.6069 15.6365 26.6628C15.666 26.6702 15.6837 26.7012 15.6748 26.7306C15.6689 26.7557 15.6454 26.7719 15.6218 26.7719V26.7689Z" fill="#7465D1"/>
<path d="M15.3241 27.6266C15.1016 27.6266 14.4945 27.5573 14.4193 27.5485C14.3884 27.5455 14.3678 27.5175 14.3707 27.4881C14.3736 27.4571 14.4002 27.4365 14.4311 27.4394C14.7568 27.4778 15.2755 27.5293 15.3669 27.5161C15.3978 27.5102 15.4258 27.5323 15.4288 27.5632C15.4332 27.5927 15.4125 27.6222 15.3816 27.6251C15.3683 27.6266 15.3477 27.6281 15.3227 27.6281L15.3241 27.6266Z" fill="#7465D1"/>
<path d="M14.1394 29.4495C14.1084 29.4495 14.0848 29.4244 14.0848 29.3935C14.0848 29.3625 14.1099 29.3375 14.1394 29.3375C14.1453 29.3375 14.6713 29.3375 14.857 29.3183C14.888 29.3154 14.9145 29.3375 14.9174 29.3684C14.9204 29.3994 14.8983 29.4259 14.8673 29.4288C14.6772 29.448 14.1615 29.448 14.1394 29.448V29.4495Z" fill="#7465D1"/>
<path d="M15.7648 31.4668C15.7648 31.4668 14.776 31.6186 14.577 30.1922C14.3781 28.7657 16.1936 23.4224 19.16 20.8848C22.1264 18.3457 24.5505 18.1468 24.9778 18.6316C25.4052 19.1164 25.4907 19.059 25.2637 19.3448C25.0353 19.6307 23.3524 20.7138 22.6392 21.2267C21.926 21.7395 19.3015 23.5078 18.5897 24.4775C17.8765 25.4471 16.1656 28.7274 16.1656 28.7274L15.7662 31.4654L15.7648 31.4668Z" fill="#E046E3"/>
<path d="M16.0978 32.1329C16.0978 32.1329 14.9955 31.9428 15.2607 29.5467C15.5275 27.1506 17.3518 23.0053 20.5466 20.6092C23.7414 18.2131 25.7235 18.6684 26.6695 19.0884C27.6966 19.5453 28.4953 21.4079 27.925 23.0819C27.3548 24.7545 25.3388 28.3678 22.5242 30.6121C19.7096 32.8565 17.7703 33.0083 16.0978 32.1329Z" fill="#27218F"/>
<path d="M25.775 24.7353C25.775 24.7353 24.1496 27.2169 22.9516 28.5299C21.7535 29.8414 19.4149 31.6953 18.6736 30.7831C18.5042 30.5738 18.4025 30.3071 18.3612 29.9977C18.2139 28.9543 18.7488 27.4453 19.6727 26.1898C20.8693 24.5644 23.8077 21.7984 25.2342 21.7689C25.3683 21.766 25.4906 21.7778 25.6011 21.8028C26.671 22.0254 26.6798 23.3914 25.775 24.7353Z" fill="#3E28BB"/>
<path d="M18.5808 30.5296C18.3288 30.5296 18.1844 30.4795 18.1697 30.4736C18.1417 30.4633 18.127 30.4309 18.1373 30.4029C18.1476 30.3749 18.1785 30.3602 18.208 30.3705C18.2154 30.3734 18.9787 30.6343 20.1178 29.8812C21.2761 29.115 21.9643 28.3575 21.9702 28.3501C21.9908 28.328 22.0261 28.3251 22.0483 28.3457C22.0704 28.3664 22.0733 28.4017 22.0527 28.4238C22.0453 28.4312 21.3498 29.1989 20.1782 29.9726C19.4856 30.4309 18.9301 30.5282 18.5808 30.5282V30.5296Z" fill="#27218F"/>
<path d="M20.2622 30.3439C20.2446 30.3439 20.2254 30.3351 20.2151 30.3174C20.1989 30.2909 20.2062 30.257 20.2328 30.2408C20.2387 30.2364 20.8443 29.8562 21.4235 29.3522C21.447 29.333 21.4809 29.3345 21.5016 29.3581C21.5222 29.3817 21.5192 29.4156 21.4957 29.4362C20.9092 29.9461 20.2976 30.3307 20.2902 30.3351C20.2814 30.341 20.2711 30.3439 20.2608 30.3439H20.2622Z" fill="#27218F"/>
<path d="M25.0147 24.7722C25.0029 24.7722 24.9911 24.7678 24.9808 24.7604C24.9572 24.7412 24.9528 24.7074 24.9705 24.6823C24.9705 24.6823 25.0854 24.5349 25.2357 24.3006C25.2519 24.2756 25.2858 24.2682 25.3123 24.2844C25.3374 24.3006 25.3448 24.3345 25.3286 24.3611C25.1753 24.5998 25.0618 24.7442 25.0574 24.7516C25.0471 24.7648 25.0309 24.7722 25.0132 24.7722H25.0147Z" fill="#27218F"/>
<path d="M25.5643 23.9087C25.5555 23.9087 25.5467 23.9072 25.5378 23.9028C25.5113 23.888 25.501 23.8541 25.5157 23.8276C25.8119 23.272 26.1391 22.463 26.0064 21.7616C26.0005 21.7321 26.0212 21.7026 26.0506 21.6967C26.0816 21.6908 26.1096 21.7115 26.1155 21.741C26.254 22.4748 25.9195 23.3089 25.613 23.8792C25.6027 23.8983 25.5835 23.9087 25.5643 23.9087Z" fill="#27218F"/>
<path d="M25.7323 21.8412C25.6896 21.8279 25.6483 21.8132 25.6012 21.8028C25.6306 22.3437 25.4066 23.0304 24.9484 23.7097C24.9484 23.7097 23.3229 26.1898 22.1249 27.5028C21.1346 28.5874 19.3633 30.0433 18.3613 29.9977C18.3672 30.0389 18.376 30.0772 18.3834 30.117C19.3589 30.2968 21.2348 28.7657 22.2664 27.6369C23.4644 26.3239 25.0898 23.8423 25.0898 23.8423C25.5746 23.1217 25.7942 22.3952 25.7308 21.8412H25.7323Z" fill="#A2FDFA"/>
<path opacity="0.46" d="M25.6011 21.8028C25.6306 22.3437 25.4066 23.0304 24.9483 23.7097C24.9483 23.7097 23.3229 26.1898 22.1249 27.5028C21.1346 28.5874 19.3633 30.0433 18.3612 29.9977C18.2139 28.9543 18.7488 27.4453 19.6727 26.1898C20.8693 24.5644 23.8077 21.7984 25.2342 21.7689C25.3683 21.766 25.4906 21.7778 25.6011 21.8028Z" fill="black"/>
<path d="M22.486 19.7545C22.486 19.7545 20.9843 20.4014 19.7288 21.7321C18.4733 23.0628 18.1314 24.3935 19.1011 24.7928C20.0707 25.1922 21.6298 23.5565 22.4668 22.8919C23.3038 22.2258 24.7111 21.3902 25.4715 21.3519C26.2319 21.3136 27.5434 20.6667 27.2782 19.9446C27.0115 19.2225 25.2431 18.3472 22.486 19.7545Z" fill="#3E28BB"/>
<path d="M17.0099 26.2193C17.0099 26.2193 17.1809 25.2688 17.9796 25.344C18.7783 25.4191 18.569 26.2561 18.1697 26.7129C17.7703 27.1698 16.895 27.2258 17.0099 26.2193Z" fill="#3E28BB"/>
<path d="M14.6389 30.5694C14.6389 30.5694 13.3701 31.5671 13.3554 31.6967C13.3407 31.8249 13.7695 32.3525 13.911 32.382C14.0539 32.41 15.3802 31.3269 15.4082 31.2841C15.4362 31.2414 14.8231 30.5709 14.6375 30.5709L14.6389 30.5694Z" fill="#221C5A"/>
<path d="M13.6884 32.1594C13.6501 32.186 10.8723 34 7.39749 34C6.41017 34 5.3639 33.8526 4.31026 33.4769C4.21595 33.443 4.12311 33.4076 4.03027 33.3708C3.71344 33.2455 3.39514 33.0981 3.07831 32.9272C3.00758 32.8889 2.97958 32.8005 3.01937 32.7283C3.05768 32.6561 3.1461 32.6295 3.21831 32.6679C3.52482 32.8329 3.83133 32.9744 4.13784 33.0952C4.23216 33.1335 4.32499 33.1689 4.41783 33.1998C9.03321 34.8459 13.4762 31.9472 13.5248 31.9148C13.5926 31.8691 13.684 31.8883 13.7296 31.9561C13.7739 32.0239 13.7562 32.1152 13.6884 32.1594Z" fill="#3E28BB"/>
<path d="M4.41789 33.1998C4.38989 33.3089 4.34569 33.4076 4.31032 33.4769C4.21601 33.443 4.12317 33.4076 4.03033 33.3708C4.06423 33.3118 4.11728 33.2057 4.13791 33.0952C4.23222 33.1335 4.32505 33.1689 4.41789 33.1998Z" fill="#A2FDFA"/>
<path d="M3.48211 32.3068C3.48211 32.3068 3.55726 32.7504 3.33769 33.0171C3.11812 33.2824 2.94423 33.3649 2.56109 33.3133C2.17648 33.2617 0.200349 32.3879 0.0485659 32.155C-0.103217 31.9237 0.116352 31.1147 0.490652 30.982C0.864952 30.8479 1.81102 31.2267 2.37541 31.5258C2.93834 31.8249 3.44674 32.0784 3.48358 32.3083L3.48211 32.3068Z" fill="#221C5A"/>
</g>
</svg>
