<svg width="106" height="169" viewBox="0 0 106 169" fill="none" xmlns="http://www.w3.org/2000/svg">
<path d="M74.4225 77.1845H35.7008V94.045H74.4225V77.1845Z" fill="#494963"/>
<path d="M36.2817 110.145C36.2817 110.145 28.4329 111.753 23.7489 112.404H23.7441C22.8797 112.525 22.1241 112.612 21.5449 112.651C17.8297 112.899 8.54419 113.229 8.6878 104.807C8.75961 100.627 12.0713 95.8337 15.3899 92.0693L18.2434 95.9007C18.2434 95.9007 20.5294 95.024 24.4798 94.4121C26.9866 94.0257 30.1616 93.7433 33.8473 93.8596C43.3407 94.157 36.2817 110.145 36.2817 110.145V110.145Z" fill="#787A75"/>
<path d="M36.2817 110.145C36.2817 110.145 28.4329 111.753 23.7489 112.404H23.7441C20.1232 109.796 18.2455 101.967 24.3507 94.6527C24.3507 94.6527 24.3951 94.5637 24.4793 94.4126C26.9861 94.0262 30.1611 93.7438 33.8468 93.8601C43.3402 94.1575 36.2812 110.145 36.2812 110.145H36.2817Z" fill="#787A75"/>
<path d="M99.5221 104.807C99.6657 113.228 90.3802 112.899 86.665 112.651C86.0852 112.612 85.3302 112.525 84.4658 112.404C84.072 112.352 83.6508 112.29 83.2173 112.221C78.5113 111.495 71.9282 110.145 71.9282 110.145C71.9282 110.145 65.0675 94.6082 73.9693 93.8826C74.0979 93.8725 74.2292 93.8655 74.3631 93.8601C75.354 93.828 76.3051 93.8253 77.2188 93.8451C77.3624 93.85 77.5039 93.8526 77.6421 93.8575C77.7959 93.8623 77.947 93.8671 78.0955 93.8724C78.7171 93.8971 79.3188 93.9346 79.9008 93.9764C80.0792 93.9887 80.2577 94.0037 80.4308 94.0188C81.3648 94.0981 82.2388 94.1993 83.0512 94.3135C83.1503 94.3258 83.2467 94.3408 83.3459 94.3558C83.6379 94.3981 83.9203 94.4426 84.1952 94.4871C84.2869 94.5021 84.3785 94.5171 84.4674 94.5342C84.7348 94.5814 84.9947 94.6286 85.2477 94.6752C85.3318 94.6902 85.4138 94.7052 85.4952 94.7223C85.6587 94.7545 85.8173 94.7866 85.9732 94.8188C86.0847 94.8413 86.1962 94.866 86.3028 94.8879C86.642 94.9624 86.9592 95.0364 87.254 95.1082C87.3209 95.1232 87.3826 95.1382 87.4474 95.1553C87.9479 95.2791 88.3787 95.3981 88.7351 95.502C88.824 95.5294 88.9109 95.554 88.9902 95.5787C89.1638 95.6306 89.3144 95.6778 89.4408 95.7196C89.4757 95.7292 89.5078 95.7421 89.54 95.7517C89.8197 95.846 89.966 95.9002 89.966 95.9002L92.8195 92.0687C93.7481 93.1212 94.6746 94.2556 95.5315 95.4324C97.7382 98.4664 99.4696 101.795 99.5215 104.807L99.5221 104.807Z" fill="#787A75"/>
<path d="M97.3968 85.9218L92.8195 92.0693L89.966 95.9007C89.966 95.9007 89.8197 95.8461 89.54 95.7523C89.5105 95.7421 89.4757 95.7298 89.4408 95.7201C89.3144 95.6778 89.1633 95.6312 88.9902 95.5792C88.9109 95.5545 88.824 95.5299 88.7351 95.5026C88.3782 95.3986 87.9474 95.2796 87.4474 95.1559C87.3831 95.1387 87.3209 95.1237 87.254 95.1087C86.9592 95.0369 86.642 94.9624 86.3028 94.8885C86.1962 94.866 86.0847 94.8413 85.9732 94.8193C85.8173 94.7872 85.6587 94.755 85.4952 94.7229C85.4132 94.7057 85.3318 94.6907 85.2477 94.6757C84.9953 94.6286 84.7348 94.5814 84.4674 94.5348C84.3785 94.5176 84.2868 94.5026 84.1952 94.4876C83.9203 94.4432 83.6379 94.3987 83.3459 94.3563C83.2467 94.3413 83.1503 94.3269 83.0511 94.314C82.2388 94.1999 81.3642 94.0986 80.4308 94.0193C80.2571 94.0043 80.0792 93.9893 79.9008 93.977C79.3188 93.9346 78.7171 93.8976 78.0955 93.873C77.9443 93.8682 77.7932 93.8634 77.6421 93.858C77.5012 93.8532 77.3597 93.8505 77.2188 93.8457C76.3046 93.8258 75.354 93.8285 74.3631 93.8607C74.2292 93.8655 74.0979 93.873 73.9693 93.8832C71.7771 94.0616 70.5413 95.1366 69.9224 96.6595C69.0034 98.9209 69.4492 102.166 70.1528 104.907C70.678 106.953 71.3468 108.717 71.6935 109.581C71.8397 109.943 71.9287 110.146 71.9287 110.146C71.9287 110.146 78.5118 111.496 83.2178 112.221V120.907C83.2178 120.907 79.8145 123.305 75.7328 126.037C71.0788 129.153 65.5455 132.712 63.1855 133.648C62.1824 134.047 60.6964 134.188 58.9998 134.166C57.8236 134.151 56.5456 134.057 55.2547 133.918H55.2498C50.1897 133.373 44.951 132.125 44.951 132.125L23.7495 121.156V112.405C28.4329 111.753 36.2823 110.146 36.2823 110.146C36.2823 110.146 43.1703 94.545 34.1844 93.8784C34.0756 93.8708 33.9615 93.8633 33.8473 93.8612C24.3512 93.5617 18.2434 95.9023 18.2434 95.9023L15.3899 92.0709L10.8126 85.9234C17.4155 80.2491 28.8091 77.2472 28.8091 77.2472C28.8091 77.2472 41.2128 83.9445 47.3083 89.2994H60.9011C66.9966 83.9445 79.4003 77.2472 79.4003 77.2472C79.4003 77.2472 88.8417 79.7342 95.517 84.4621C96.1734 84.9278 96.8047 85.4133 97.3968 85.9234V85.9218Z" fill="#5F566D"/>
<g opacity="0.3">
<path d="M36.2817 110.145C36.2817 110.145 28.4329 111.753 23.7489 112.404H23.7441C22.8797 112.525 22.1241 112.612 21.5449 112.651C17.8988 112.894 8.88608 113.216 8.69049 105.266C11.3929 108.778 17.364 108.542 20.1682 108.356C20.748 108.317 21.5031 108.23 22.3674 108.109H22.3722C27.0557 107.457 34.9051 105.85 34.9051 105.85C34.9051 105.85 37.5008 99.9728 37.4263 95.2791C41.0944 99.2472 36.2823 110.145 36.2823 110.145H36.2817Z" fill="#371A45"/>
</g>
<g opacity="0.6">
<path d="M97.3968 85.9218L97.1193 86.2932C90.4268 81.2603 80.3563 78.6078 80.3563 78.6078C80.3563 78.6078 67.9526 85.305 61.8571 90.66H48.2643C42.1688 85.305 29.7651 78.6078 29.7651 78.6078C29.7651 78.6078 18.4112 81.5995 11.8034 87.2545L10.8126 85.9218C17.4155 80.2475 28.8091 77.2456 28.8091 77.2456C28.8091 77.2456 41.2128 83.9429 47.3083 89.2978H60.9011C66.9966 83.9429 79.4003 77.2456 79.4003 77.2456C79.4003 77.2456 90.7934 80.2475 97.3968 85.9218Z" fill="white"/>
</g>
<g opacity="0.6">
<path d="M38.803 99.5988C38.3647 97.3744 37.017 95.7175 34.0204 95.6237C30.3347 95.5074 27.1597 95.7898 24.6529 96.1762C23.0689 96.4216 21.7528 96.7094 20.7438 96.966C19.321 97.3283 17.827 96.7415 17.0372 95.5037L15.9713 93.8339C12.6522 97.5984 8.9322 102.391 8.86039 106.571C8.85771 106.663 8.85771 106.752 8.85771 106.842C8.73393 106.227 8.67445 105.551 8.68677 104.808C8.75858 100.627 12.0702 95.8343 15.3889 92.0698L18.2423 95.9013C18.2423 95.9013 20.5284 95.0246 24.4788 94.4126C26.9855 94.0263 30.1606 93.7439 33.8463 93.8602C37.5936 93.9764 38.7628 96.54 38.8025 99.5988H38.803Z" fill="white"/>
</g>
<path d="M19.118 113.607C15.9981 113.607 12.4341 113.11 10.1031 110.892C8.54477 109.409 7.77687 107.356 7.82081 104.793C7.8819 101.233 10.0538 96.9408 14.2775 92.0269L10.1175 86.44C9.84532 86.0745 9.90266 85.5612 10.2478 85.2648C16.9252 79.5263 28.1152 76.5324 28.5883 76.4075C28.8016 76.3518 29.0277 76.3786 29.2212 76.4831C29.7313 76.7585 41.7819 83.2896 47.8811 88.6472C48.2407 88.9634 48.2761 89.5111 47.9599 89.8706C47.6437 90.2302 47.0961 90.2656 46.7365 89.9494C41.312 85.1839 30.6407 79.239 28.7025 78.1748C26.8714 78.6951 17.8056 81.4302 12 86.0644L16.085 91.5506H16.0855L18.5601 94.874C20.3697 94.2867 25.9433 92.7429 33.8752 92.9937C36.0562 93.0617 37.6563 93.881 38.6305 95.4286C41.5927 100.134 37.2619 110.074 37.0759 110.495C36.9629 110.752 36.7319 110.938 36.457 110.994C36.0047 111.087 25.3345 113.268 21.6033 113.517C20.8349 113.568 19.9946 113.607 19.119 113.607H19.118ZM15.3396 93.4534C11.6019 97.8727 9.60632 101.789 9.55434 104.822C9.51844 106.91 10.0891 108.485 11.2981 109.636C14.0771 112.28 19.6538 111.909 21.4865 111.787C24.6819 111.574 33.5714 109.808 35.6634 109.386C36.8835 106.451 39.1165 99.4551 37.1611 96.3519C36.5036 95.3081 35.4105 94.7765 33.8195 94.7267C24.6369 94.4405 18.6116 96.6885 18.5521 96.711C18.1893 96.8492 17.7794 96.7303 17.5473 96.4189L15.339 93.4534H15.3396Z" fill="#371A45"/>
<path d="M18.6502 96.6665L14.6097 97.832L17.8362 95.1355C18.9899 94.298 19.9893 96.1788 18.6496 96.6665H18.6502Z" fill="#371A45"/>
<path d="M23.7452 113.272C23.57 113.272 23.3926 113.219 23.2399 113.108C21.337 111.739 19.9839 109.201 19.6201 106.32C19.0997 102.203 20.5444 97.862 23.6873 94.0975C23.9938 93.7299 24.5409 93.6806 24.908 93.9877C25.2756 94.2942 25.3249 94.8413 25.0179 95.2084C22.1869 98.5994 20.881 102.468 21.3402 106.103C21.6451 108.515 22.734 110.608 24.2526 111.701C24.6412 111.981 24.7296 112.523 24.4498 112.911C24.2805 113.147 24.0147 113.272 23.7457 113.272H23.7452Z" fill="#371A45"/>
<path d="M84.4658 112.404C84.072 112.352 83.6508 112.29 83.2172 112.221C78.5113 111.495 71.9281 110.145 71.9281 110.145C71.9281 110.145 64.8692 94.1575 74.3626 93.8601C77.9909 93.746 81.1268 94.0161 83.6159 94.3949C83.7746 94.5584 83.8587 94.6527 83.8587 94.6527C89.9638 101.969 88.0867 109.796 84.4653 112.404H84.4658Z" fill="#787A75"/>
<path d="M28.076 112.575C27.8681 112.575 27.6591 112.501 27.493 112.35C24.5463 109.67 22.9971 106.647 22.8878 103.365C22.704 97.8299 26.6919 93.6207 26.8617 93.4444C27.1934 93.0993 27.7432 93.0885 28.0873 93.4208C28.4324 93.7525 28.4431 94.3007 28.1114 94.6458C28.0749 94.6838 24.4546 98.5254 24.6213 103.321C24.7183 106.112 26.0767 108.719 28.6596 111.067C29.0138 111.389 29.0395 111.938 28.7174 112.292C28.5465 112.48 28.3118 112.575 28.076 112.575Z" fill="#371A45"/>
<path d="M23.3835 102.436C26.4802 100.179 29.33 97.3679 31.2157 93.993C31.2832 93.8585 31.5013 93.9502 31.4408 94.0965C29.9232 97.8331 27.381 101.043 24.4536 103.8C23.511 104.592 22.3862 103.167 23.384 102.436H23.3835Z" fill="#371A45"/>
<g opacity="0.3">
<path d="M99.522 104.807C99.6657 113.229 90.3802 112.899 86.665 112.651C86.0852 112.612 85.3302 112.525 84.4658 112.404C84.0719 112.352 83.6507 112.29 83.2172 112.221C78.5112 111.495 71.9281 110.145 71.9281 110.145C71.9281 110.145 68.6191 102.65 69.58 97.8277C70.2262 101.677 71.8413 105.335 71.8413 105.335C71.8413 105.335 78.4244 106.685 83.1304 107.41C83.5639 107.479 83.9851 107.541 84.379 107.593C85.2434 107.715 85.9989 107.801 86.5782 107.841C89.8899 108.061 97.6321 108.349 99.1705 102.439C99.3838 103.242 99.5076 104.034 99.522 104.807V104.807Z" fill="#371A45"/>
</g>
<path d="M25.7161 108.436C27.0542 107.799 28.3317 106.917 29.4426 105.921C30.5909 104.895 31.5496 103.667 32.2055 102.263C32.2655 102.129 32.4831 102.211 32.4354 102.353C32.2049 103.115 31.9177 103.875 31.5217 104.581C31.1273 105.285 30.6831 105.972 30.1649 106.599C29.1157 107.883 27.9303 109.01 26.5516 109.955C25.4857 110.604 24.594 108.991 25.7161 108.436Z" fill="#371A45"/>
<path d="M89.0914 113.607C88.2158 113.607 87.3756 113.568 86.6071 113.517C82.8759 113.268 72.2063 111.087 71.754 110.994C71.4791 110.938 71.2481 110.752 71.1351 110.495C70.9491 110.074 66.6182 100.134 69.5805 95.4286C70.5547 93.881 72.1548 93.0617 74.3358 92.9937C82.2741 92.7429 87.8412 94.2867 89.6503 94.874L92.125 91.5511C92.125 91.5511 92.126 91.5495 92.1271 91.5484L96.2104 86.0644C90.4048 81.4302 81.339 78.6957 79.508 78.1748C77.5692 79.2396 66.898 85.1845 61.4739 89.9494C61.1149 90.2656 60.5667 90.2302 60.2505 89.8706C59.9344 89.5111 59.9703 88.9634 60.3293 88.6472C66.428 83.2891 78.4791 76.758 78.9893 76.4831C79.1827 76.3786 79.4094 76.3518 79.6221 76.4075C80.0953 76.5324 91.2853 79.5263 97.9627 85.2648C98.3083 85.5617 98.3651 86.0751 98.0929 86.44L93.933 92.0269C98.1572 96.9403 100.329 101.233 100.39 104.793C100.434 107.357 99.6651 109.409 98.1074 110.892C95.7764 113.111 92.2123 113.607 89.0925 113.607L89.0914 113.607ZM72.546 109.386C74.6375 109.808 83.527 111.574 86.7224 111.786C88.555 111.909 94.1323 112.281 96.9113 109.636C98.1202 108.485 98.6909 106.91 98.655 104.822C98.6031 101.789 96.607 97.8722 92.8698 93.4534L90.6615 96.4189C90.4295 96.7302 90.0185 96.8492 89.6562 96.7104C89.5973 96.6879 83.5768 94.4357 74.3899 94.7261C72.7984 94.7759 71.7058 95.3075 71.0483 96.3514C69.0934 99.4546 71.3258 106.45 72.546 109.385V109.386Z" fill="#371A45"/>
<path d="M90.3733 95.1355L93.5997 97.832L89.5593 96.6665C89.0893 96.5309 88.8182 96.0401 88.9537 95.5696C89.114 94.963 89.9033 94.7267 90.3733 95.1355Z" fill="#371A45"/>
<path d="M84.4648 113.272C84.1953 113.272 83.9295 113.147 83.7607 112.911C83.481 112.523 83.5694 111.981 83.9579 111.701C85.4765 110.608 86.5654 108.516 86.8703 106.103C87.3296 102.469 86.0231 98.5999 83.1927 95.2089C82.8856 94.8413 82.9349 94.2947 83.3025 93.9882C83.6701 93.6806 84.2173 93.731 84.5232 94.0981C87.6661 97.8625 89.1102 102.203 88.5899 106.321C88.2261 109.202 86.8725 111.739 84.9701 113.108C84.8169 113.219 84.64 113.272 84.4648 113.272Z" fill="#371A45"/>
<path d="M80.1334 112.575C79.8976 112.575 79.6629 112.48 79.4919 112.292C79.1699 111.938 79.1956 111.389 79.5498 111.067C82.1321 108.719 83.4911 106.112 83.5881 103.321C83.7547 98.5254 80.1339 94.6838 80.0974 94.6457C79.7668 94.3001 79.7781 93.7519 80.1232 93.4202C80.4677 93.089 81.0154 93.0992 81.3476 93.4443C81.5175 93.6206 85.5054 97.8304 85.3216 103.365C85.2123 106.648 83.6631 109.67 80.7164 112.35C80.5503 112.501 80.3413 112.575 80.1334 112.575Z" fill="#371A45"/>
<path d="M83.7649 103.675C80.8262 100.994 78.2674 97.7999 76.7686 94.0965C76.7123 93.9566 76.9208 93.8521 76.9937 93.9931C77.9325 95.6853 79.1211 97.2163 80.4682 98.5967C81.7886 99.9524 83.2821 101.244 84.8264 102.303C85.8049 103.023 84.7144 104.443 83.7649 103.675Z" fill="#371A45"/>
<path d="M81.7812 110.028C79.0943 108.136 76.7156 105.549 75.7741 102.353C75.7543 102.287 75.7912 102.218 75.8566 102.198C75.9188 102.179 75.9825 102.212 76.0072 102.27C76.9953 104.406 78.7251 106.085 80.6532 107.38C81.2732 107.793 81.9698 108.21 82.6289 108.515C83.7306 109.078 82.8416 110.674 81.7806 110.028H81.7812Z" fill="#371A45"/>
<path d="M65.6965 108.998C63.096 109.989 61.9814 108.255 58.9473 103.797C56.9909 104.226 54.9846 103.579 54.7986 101.32H52.01C51.824 103.582 49.8177 104.226 47.8613 103.797C44.8272 108.256 43.7126 109.989 41.1121 108.998C39.2472 108.287 36.9039 104.327 36.4232 99.6212C36.2325 97.7634 36.3343 95.792 36.8664 93.8575C38.751 87.0166 40.6978 86.9743 40.6978 86.9743C40.6978 86.9743 47.1202 83.7666 49.2851 88.688C52.0319 88.9355 54.7761 88.9355 57.523 88.688C59.5614 83.7071 66.1102 86.9743 66.1102 86.9743C66.1102 86.9743 67.7473 87.0091 69.4739 92.297C69.6298 92.775 69.7857 93.2927 69.9422 93.8596C71.8269 100.7 68.2976 108.007 65.6971 108.998L65.6965 108.998Z" fill="#F0EDF4"/>
<g opacity="0.3">
<path d="M65.6965 108.998C63.096 109.989 61.9814 108.255 58.9473 103.797C56.9909 104.226 54.9846 103.579 54.7986 101.32H52.01C51.824 103.582 49.8177 104.226 47.8613 103.797C44.8272 108.256 43.7126 109.989 41.1121 108.998C39.2472 108.287 36.9039 104.327 36.4232 99.6212C36.9484 98.0978 37.2629 96.6665 36.9832 95.9013C36.4752 94.5144 41.9491 92.9192 41.9491 92.9192C41.9491 92.9192 44.8272 91.1036 47.5516 94.6527H59.257C61.9814 91.1036 64.8595 92.9192 64.8595 92.9192L69.4739 92.2975C69.6298 92.7755 69.7857 93.2932 69.9422 93.8601C71.8269 100.701 68.2976 108.008 65.6971 108.998H65.6965Z" fill="#371A45"/>
</g>
<path d="M59.2566 95.3965H47.5516C47.3207 95.3965 47.1031 95.2888 46.9622 95.106C44.6767 92.1271 42.4384 93.4883 42.3441 93.5483C41.9974 93.7674 41.5381 93.6629 41.319 93.3162C41.0998 92.969 41.2043 92.5103 41.551 92.2911C41.5848 92.2697 44.8696 90.2645 47.9085 93.9105H58.8992C61.9381 90.2634 65.2224 92.2702 65.2567 92.2911C65.6039 92.5103 65.7079 92.969 65.4887 93.3162C65.2706 93.6619 64.8157 93.7664 64.4684 93.5509C64.2257 93.4036 62.0634 92.2166 59.846 95.106C59.7051 95.2893 59.4875 95.3965 59.2566 95.3965Z" fill="#371A45"/>
<path d="M45.6246 91.5785C44.4746 91.5785 43.3552 90.7596 43.2009 90.6423C42.874 90.3942 42.8102 89.928 43.0589 89.6011C43.307 89.2748 43.7737 89.211 44.1001 89.4591C44.5947 89.831 45.4896 90.2409 45.8802 90.04C46.0667 89.9441 46.1808 89.8321 46.1851 89.7404C46.1926 89.5898 46.0061 89.2062 45.2591 88.7234C44.2131 88.0466 43.1183 89.1858 43.1076 89.1976C42.8263 89.4961 42.3563 89.5105 42.0573 89.2287C41.7589 88.9473 41.7449 88.4769 42.0262 88.1784C42.6982 87.4662 44.4066 86.4025 46.0667 87.4759C47.4423 88.3665 47.6973 89.2388 47.6695 89.8138C47.6373 90.4596 47.244 91.0088 46.5608 91.3609C46.2596 91.5163 45.9408 91.5779 45.6246 91.5779V91.5785Z" fill="#371A45"/>
<path d="M61.0034 91.5784C60.6872 91.5784 60.3689 91.5168 60.0678 91.3614C59.3845 91.0094 58.9907 90.4595 58.9591 89.8138C58.9307 89.2388 59.1858 88.3665 60.5619 87.4758C62.222 86.4014 63.9303 87.4657 64.6023 88.1784C64.8836 88.4774 64.8697 88.9473 64.5712 89.2287C64.2727 89.5089 63.8044 89.4961 63.5231 89.1997C63.4743 89.1494 62.4015 88.0557 61.3689 88.7233C60.6224 89.2062 60.4359 89.5898 60.4429 89.7404C60.4472 89.8315 60.5613 89.9435 60.7478 90.04C61.1363 90.2399 62.0328 89.831 62.529 89.4575C62.8564 89.2115 63.3221 89.2764 63.5691 89.6027C63.8162 89.9296 63.7529 90.3942 63.4266 90.6418C63.2723 90.7591 62.1534 91.5779 61.0029 91.5779L61.0034 91.5784Z" fill="#371A45"/>
<path d="M94.2813 9.53455C94.2813 9.53455 84.7852 8.70717 77.9341 14.1564L77.3248 13.8911L72.0717 11.5976C72.0717 11.5976 78.8408 0.947285 89.8228 1.1134L93.3001 7.68206L94.2807 9.53455H94.2813Z" fill="#ED3248"/>
<g opacity="0.3">
<path d="M94.2813 9.53454C94.2813 9.53454 84.7852 8.70717 77.9341 14.1564L77.3249 13.8911L75.415 10.513C75.5388 10.5254 78.4689 11.1845 81.7308 9.0394C84.9926 6.89219 92.3811 6.8327 92.3811 6.8327C92.3811 6.8327 92.7702 7.18209 93.3001 7.68205L94.2808 9.53454H94.2813Z" fill="#371A45"/>
</g>
<g opacity="0.6">
<path d="M90.5875 2.5688C81.3664 2.44984 75.1198 9.95733 73.3739 12.3371L72.18 11.8146C72.18 11.8146 78.9491 1.1643 89.9311 1.33041L90.5875 2.5688Z" fill="white"/>
</g>
<path d="M98.7397 18.8624L98.5988 21.6291L98.2446 28.6061C98.2446 28.6061 93.462 23.0727 84.3769 20.6801L82.9381 18.3121L80.4115 14.1559C80.4115 14.1559 91.557 11.102 98.7397 18.8619V18.8624Z" fill="#ED3248"/>
<g opacity="0.3">
<path d="M98.5983 21.6291L98.2441 28.6061C98.2441 28.6061 93.4615 23.0727 84.3764 20.6801L82.9376 18.3121L84.8474 15.808C89.4912 18.946 95.1559 24.6428 98.5988 21.6285L98.5983 21.6291Z" fill="#371A45"/>
</g>
<g opacity="0.6">
<path d="M98.7397 18.8624L98.6604 20.4202C92.6914 14.06 84.0447 15.0776 81.2903 15.6027L80.4109 14.1564C80.4109 14.1564 91.5564 11.1025 98.7392 18.8624H98.7397Z" fill="white"/>
</g>
<path d="M77.9342 15.024C77.6791 15.024 77.4261 14.912 77.2552 14.6966C76.9573 14.322 77.0194 13.7765 77.394 13.4785C82.8411 9.14714 89.7698 8.61877 92.8146 8.61717L89.3004 1.97992C79.2186 2.15354 72.867 11.962 72.8032 12.0628C72.5465 12.4668 72.0107 12.5863 71.6066 12.3291C71.2026 12.0724 71.0831 11.5366 71.3398 11.1325C71.6243 10.6845 78.3912 0.243713 89.5646 0.243713C89.6546 0.243713 89.7441 0.244248 89.8347 0.245856C90.1508 0.250678 90.4397 0.427514 90.5876 0.707236L95.046 9.12838C95.1944 9.40864 95.1778 9.74838 95.0026 10.0131C94.8268 10.2778 94.5187 10.4246 94.2047 10.3979C94.1125 10.3898 84.9631 9.67443 78.4722 14.8359C78.313 14.9629 78.1222 15.0245 77.9331 15.0245L77.9342 15.024Z" fill="#371A45"/>
<path d="M98.2435 29.472C97.9959 29.472 97.7553 29.3659 97.5876 29.1719C97.5421 29.1194 92.8484 23.8084 84.1556 21.5176C83.6926 21.3954 83.4161 20.9211 83.5382 20.4582C83.6604 19.9952 84.1347 19.7181 84.5977 19.8408C91.0736 21.5476 95.3986 24.7746 97.4761 26.6324L97.8545 19.1898C91.1154 12.2481 80.7448 14.965 80.6392 14.9934C80.1789 15.1199 79.7014 14.8471 79.5755 14.3852C79.4496 13.9233 79.7207 13.4474 80.1821 13.3209C80.6585 13.1907 91.9213 10.2199 99.3758 18.274C99.5344 18.4454 99.6169 18.6737 99.6051 18.9068L99.11 28.6489C99.0918 29.0026 98.8608 29.3096 98.5259 29.4248C98.4337 29.4564 98.3384 29.472 98.2446 29.472H98.2435Z" fill="#371A45"/>
<path d="M32.2075 10.3266C10.4819 17.9552 9.77936 39.4659 9.77936 39.4659H96.3856C96.3856 39.4659 95.6831 17.9546 73.9574 10.3266" fill="#C882FF"/>
<g opacity="0.3">
<path d="M96.3867 39.467H9.78046C9.78046 39.467 9.80779 38.6471 10.013 37.27H91.5146C91.5146 37.27 90.9348 19.4744 74.4789 10.5131C95.6954 18.3003 96.3862 39.467 96.3862 39.467H96.3867Z" fill="#371A45"/>
</g>
<g opacity="0.6">
<path d="M87.5792 19.0826C84.4706 16.0314 80.3841 13.2969 75.0121 11.4096H33.2605C14.4564 18.0125 11.4025 35.0113 10.9197 39.467H9.78046C9.78046 39.467 10.4814 17.9557 32.2081 10.3271H73.9596C79.9635 12.4347 84.3597 15.6027 87.5797 19.0826H87.5792Z" fill="white"/>
</g>
<path d="M96.3857 40.333H9.77941C9.5447 40.333 9.32018 40.2376 9.15621 40.0688C8.99277 39.9 8.90488 39.6722 8.91292 39.4375C8.92042 39.2109 9.1278 33.812 12.0574 27.3966C14.7651 21.4667 20.4094 13.5498 31.9198 9.5083C32.3721 9.34968 32.8662 9.5876 33.0248 10.0388C33.1834 10.4905 32.946 10.9851 32.4943 11.1438C23.7387 14.218 17.4032 19.9073 13.6628 28.0536C11.5376 32.6824 10.9015 36.8348 10.7172 38.5984H95.4463C95.2619 36.8359 94.6259 32.6829 92.5006 28.0536C88.7608 19.9073 82.4247 14.2175 73.6692 11.1438C73.2175 10.9851 72.9801 10.4905 73.1387 10.0388C73.2973 9.58707 73.7914 9.34968 74.2436 9.5083C85.7541 13.5498 91.3984 21.4667 94.1061 27.3966C97.0357 33.812 97.2436 39.2109 97.2505 39.4375C97.2586 39.6722 97.1707 39.9 97.0073 40.0688C96.8438 40.2376 96.6188 40.333 96.3841 40.333H96.3857Z" fill="#371A45"/>
<path d="M53.0003 84.0023C2.8871 84.0023 -0.250931 35.4571 33.7627 14.1564C45.7875 9.74998 58.6151 9.75748 72.2374 14.1564C79.9603 18.9937 85.768 25.2355 89.5426 31.9943C90.6819 34.028 91.6357 36.1109 92.401 38.2136C100.297 59.9028 88.3091 84.0023 52.9997 84.0023H53.0003Z" fill="#5F566D"/>
<g opacity="0.3">
<path d="M53.2178 13.0841C53.826 13.4968 69.9251 15.3953 73.3102 18.1197C76.6952 20.844 80.5224 26.7879 75.5956 30.1735C75.5956 30.1735 83.8651 25.8131 83.8716 23.989C83.878 22.1655 72.5551 14.3579 72.5551 14.3579" fill="#371A45"/>
</g>
<g opacity="0.6">
<path d="M74.8186 15.8755C74.5909 15.7292 74.3632 15.5834 74.1327 15.4398C60.5105 11.0436 47.6829 11.0334 35.658 15.4398C10.2188 31.3706 5.56 62.5436 25.7981 77.2462C3.40528 63.1529 7.55664 30.5684 33.7637 14.157C45.7886 9.75053 58.6162 9.75803 72.2384 14.157C73.1253 14.7116 73.9848 15.2839 74.8192 15.876L74.8186 15.8755Z" fill="white"/>
</g>
<g opacity="0.3">
<path d="M53.0002 84.0024C31.8308 84.0024 19.0434 75.3385 13.8991 63.7246C20.2845 72.5793 32.1582 78.7069 49.9613 78.7069C87.4404 78.7069 98.6454 51.5513 87.6805 28.9506C103.302 52.3514 93.4635 84.0024 53.0002 84.0024Z" fill="#371A45"/>
</g>
<g opacity="0.6">
<path d="M80.7941 43.5214C84.0013 47.4091 85.2 53.4997 84.0061 58.4469C82.9665 62.7542 79.3446 65.9286 74.9564 66.5406C72.1859 66.9269 68.1734 67.0604 65.4238 65.3145C61.4922 62.8174 58.6564 61.3084 54.9835 60.8256C53.7226 60.66 52.4425 60.66 51.1816 60.8256C47.5087 61.3084 44.6729 62.8174 40.7413 65.3145C37.9923 67.0604 33.9797 66.9269 31.2087 66.5406C26.8205 65.9286 23.1986 62.7542 22.159 58.4469C20.9651 53.4997 22.1638 47.4085 25.371 43.5214" fill="white"/>
</g>
<path d="M80.7115 41.3843C83.9187 45.2721 85.1174 51.3627 83.9235 56.3098C82.8839 60.6171 79.262 63.7916 74.8738 64.4036C72.1033 64.7899 68.0908 64.9234 65.3413 63.1775C61.4096 60.6804 58.5738 59.1714 54.901 58.6885C53.6401 58.523 52.3599 58.523 51.099 58.6885C47.4262 59.1714 44.5903 60.6804 40.6587 63.1775C37.9097 64.9234 33.8971 64.7899 31.1262 64.4036C26.7379 63.7916 23.116 60.6171 22.0764 56.3098C20.8825 51.3627 22.0813 45.2715 25.2884 41.3843" fill="#FCC090"/>
<g opacity="0.3">
<path d="M92.4014 38.2136C89.2237 40.6679 77.0998 48.7375 55.0488 48.7573C29.0421 48.7327 16.8442 37.5148 16.8442 37.5148C15.482 33.6486 17.1041 31.3127 20.3145 31.6943H20.3172C21.3675 33.1084 28.5079 41.1978 55.0494 42.4411C80.1022 41.267 87.8696 33.9953 89.5436 31.9938C90.6829 34.0274 91.6367 36.1103 92.402 38.2131L92.4014 38.2136Z" fill="#371A45"/>
</g>
<path d="M8.39312 39.4793L7.06792 57.9587C6.74373 57.8842 6.43399 57.7952 6.13659 57.6913C2.97605 56.6137 1.39846 54.0876 0.979944 51.2491C0.16757 45.7752 3.65499 39.1449 8.39312 39.4793Z" fill="#3FCBFF"/>
<g opacity="0.6">
<path d="M8.39306 39.4793L8.2966 40.812C3.23642 41.4385 -0.0280879 49.9689 2.66679 55.304C-1.64265 49.9143 2.36188 39.056 8.39306 39.4799V39.4793Z" fill="white"/>
</g>
<path d="M74.422 54.0233C74.422 57.3076 72.4356 59.9677 69.9861 59.9677C67.5367 59.9677 65.5502 57.3076 65.5502 54.0233C65.5502 53.6493 65.5749 53.2827 65.6269 52.9285C66.1075 52.9312 66.6991 52.7801 67.4274 52.4034C69.1882 51.4945 70.9346 50.2288 72.5369 49.1635C73.6788 50.2385 74.4215 52.0143 74.4215 54.0233H74.422Z" fill="#371A45"/>
<path d="M68.624 57.522C69.376 57.522 69.9856 56.6348 69.9856 55.5403C69.9856 54.4459 69.376 53.5587 68.624 53.5587C67.872 53.5587 67.2623 54.4459 67.2623 55.5403C67.2623 56.6348 67.872 57.522 68.624 57.522Z" fill="white"/>
<path d="M77.4711 47.2542C76.1122 47.6229 75.2007 48.7487 74.1273 49.6158C72.8054 50.777 71.3167 51.9682 69.7188 52.8722C68.3695 53.5887 66.9006 54.3978 65.2936 54.0544C63.4111 53.7173 62.7889 51.546 63.4395 49.9887C63.4615 49.8859 63.6008 49.8821 63.6126 49.9887C63.8376 52.9376 65.5133 53.4531 67.8974 51.9704C69.7884 50.8885 71.5337 49.596 73.3873 48.439C74.6193 47.722 76.0131 46.7875 77.5103 47.086C77.5864 47.1042 77.5923 47.2221 77.5129 47.2424L77.4701 47.2548L77.4711 47.2542Z" fill="#371A45"/>
<path d="M31.7874 54.0233C31.7874 57.3076 33.7739 59.9677 36.2233 59.9677C38.6728 59.9677 40.6592 57.3076 40.6592 54.0233C40.6592 53.6493 40.6346 53.2827 40.5826 52.9285C40.1019 52.9312 39.5103 52.7801 38.7821 52.4034C37.0212 51.4945 35.2748 50.2288 33.6726 49.1635C32.5307 50.2385 31.788 52.0143 31.788 54.0233H31.7874Z" fill="#371A45"/>
<path d="M37.5855 57.522C38.3375 57.522 38.9471 56.6348 38.9471 55.5403C38.9471 54.4459 38.3375 53.5587 37.5855 53.5587C36.8335 53.5587 36.2239 54.4459 36.2239 55.5403C36.2239 56.6348 36.8335 57.522 37.5855 57.522Z" fill="white"/>
<path d="M42.7695 49.9882C43.5636 52.002 42.4549 54.2355 40.088 54.1412C37.2608 53.9563 34.135 51.3724 32.0843 49.612C31.0013 48.7343 30.0775 47.5966 28.696 47.2419C28.6204 47.2237 28.6183 47.101 28.6981 47.0854C29.4387 46.9054 30.2013 47.1235 30.8839 47.4C33.5397 48.6201 35.771 50.5578 38.3116 51.9698C40.7005 53.4504 42.3654 52.944 42.5958 49.9887C42.605 49.8821 42.7502 49.8859 42.7695 49.9887V49.9882Z" fill="#371A45"/>
<path d="M43.5454 74.503C41.1753 74.503 35.7105 74.1976 24.8603 72.2663C16.4675 70.7723 12.5739 66.3123 10.7857 62.8335C8.84483 59.0583 8.90967 55.6609 8.91288 55.5184C8.92521 55.0473 9.3105 54.6738 9.77885 54.6738C9.78635 54.6738 9.79385 54.6738 9.80189 54.6738C10.2799 54.6862 10.6577 55.0832 10.6459 55.5612C10.6459 55.5923 10.5982 58.7202 12.3628 62.1095C14.7126 66.6226 19.0193 69.4654 25.1636 70.5591C40.29 73.2518 44.7902 72.7261 44.8352 72.7207C45.3063 72.6597 45.7441 72.993 45.8068 73.4656C45.87 73.9388 45.541 74.3734 45.0683 74.4387C45.0132 74.4462 44.5662 74.503 43.5443 74.503H43.5454Z" fill="#371A45"/>
<path d="M49.7998 71.1864L42.5676 70.5346C41.6644 70.4532 40.8663 71.1193 40.7849 72.0224L40.5906 74.1791C40.5092 75.0823 41.1753 75.8804 42.0784 75.9618L49.3107 76.6136C50.2138 76.695 51.0119 76.0289 51.0933 75.1257L51.2877 72.969C51.3691 72.0659 50.7029 71.2678 49.7998 71.1864Z" fill="#3FCBFF"/>
<path d="M13.9533 37.2801C11.7589 42.873 10.8967 48.6539 11.4245 54.1621C11.4765 54.7242 11.5435 55.2815 11.6276 55.8366C11.9025 57.7015 12.3435 59.532 12.9501 61.303C12.7224 61.2934 12.5016 61.2757 12.284 61.2462C8.42741 60.7607 6.0996 57.5064 5.21274 53.5458C3.61746 46.4075 6.69869 36.9736 13.9533 37.2758V37.2806V37.2801Z" fill="#C882FF"/>
<g opacity="0.3">
<path d="M12.2841 61.2457C8.42742 60.7602 6.09961 57.5059 5.21275 53.5453L5.03217 52.0936C5.03217 52.0936 8.78966 54.8603 11.0189 50.8129L11.6281 55.8361L12.2846 61.2457H12.2841Z" fill="#371A45"/>
</g>
<g opacity="0.6">
<path d="M13.9533 37.2748V37.2796C13.7775 37.7281 13.6093 38.1788 13.4506 38.6321C5.99566 39.6202 3.71662 51.6553 7.30586 58.2882C2.33516 51.7496 4.87838 36.8959 13.9538 37.2748H13.9533Z" fill="white"/>
</g>
<path d="M49.4555 77.4932C49.3789 77.4932 49.3022 77.4894 49.2256 77.4825L41.993 76.8303C40.6153 76.706 39.5955 75.4842 39.7199 74.1065L39.9144 71.9496C39.9744 71.2825 40.2911 70.6786 40.8055 70.2488C41.32 69.819 41.9721 69.6165 42.6382 69.6765L49.8708 70.3286C51.2485 70.453 52.2682 71.6747 52.1439 73.0524L51.9494 75.2093C51.8894 75.8765 51.5727 76.4804 51.0583 76.9101C50.6028 77.2901 50.0412 77.4932 49.4555 77.4932ZM42.4115 71.4004C42.2304 71.4004 42.0568 71.4631 41.9164 71.5804C41.7578 71.7128 41.6597 71.8993 41.6415 72.1056L41.447 74.2624C41.4084 74.6879 41.7235 75.0652 42.1495 75.1037L49.3821 75.7559C49.5905 75.7741 49.7893 75.7114 49.9485 75.5791C50.1071 75.4467 50.2052 75.2602 50.2234 75.0539L50.4179 72.897C50.4565 72.4716 50.1414 72.0943 49.7154 72.0557L42.4828 71.4036C42.4592 71.4014 42.4356 71.4004 42.4121 71.4004H42.4115Z" fill="#371A45"/>
<path d="M12.9513 62.169C12.9395 62.169 12.9271 62.169 12.9148 62.1684C6.38743 61.8957 3.69362 55.0955 3.95298 48.8923C4.21234 42.6891 7.4747 36.1339 13.9908 36.4104C14.4694 36.4302 14.8407 36.8343 14.8209 37.3128C14.8011 37.7908 14.4067 38.1632 13.9185 38.1429C8.58824 37.9253 5.90944 43.5964 5.68491 48.9652C5.56166 51.9061 6.18004 54.7772 7.38146 56.8425C8.29511 58.4136 10.0088 60.3122 12.9866 60.4371C13.4652 60.4569 13.8365 60.8609 13.8167 61.3395C13.7974 61.8057 13.4132 62.17 12.9513 62.17V62.169Z" fill="#371A45"/>
<path d="M7.06952 58.8263C7.00468 58.8263 6.9393 58.8188 6.87339 58.8038C0.879187 57.4169 -0.497988 51.9227 0.14398 47.639C0.835784 43.0284 3.98293 38.3026 8.45473 38.6128C8.93219 38.6466 9.29176 39.0608 9.25853 39.5383C9.22531 40.0157 8.81644 40.3753 8.33256 40.3421C5.02787 40.109 2.44178 43.9994 1.85822 47.8951C1.30038 51.6183 2.42731 55.9948 7.26404 57.1136C7.73024 57.2214 8.02122 57.687 7.91297 58.1538C7.82027 58.5546 7.46338 58.8257 7.06898 58.8257L7.06952 58.8263Z" fill="#371A45"/>
<path d="M97.6069 39.4783C105.034 38.9558 109.389 55.5409 98.9321 57.9592L97.6069 39.4783Z" fill="#3FCBFF"/>
<g opacity="0.3">
<path d="M98.9326 57.9587L97.6074 39.4793C97.9021 39.4595 98.1894 39.4643 98.4718 39.4965L99.3661 51.9522C102.289 51.2759 104.055 49.4952 104.919 47.2885C105.762 51.7592 104.293 56.7203 98.9326 57.9587Z" fill="#371A45"/>
</g>
<g opacity="0.6">
<path d="M103.451 55.1523C106.056 49.7878 102.762 41.3195 97.6996 40.7643L97.608 39.4788C103.582 39.0576 107.57 49.7128 103.451 55.1518V55.1523Z" fill="white"/>
</g>
<path d="M93.0504 61.3025C95.6091 53.8277 95.2153 45.3567 92.0472 37.2801V37.2753C103.557 36.7946 104.562 60.8224 93.0504 61.303V61.3025Z" fill="#C882FF"/>
<g opacity="0.3">
<path d="M93.0504 61.3025C93.8799 58.8803 94.3976 56.3564 94.6109 53.7703C97.9992 52.9135 100.05 49.7653 100.833 46.0276C102.205 52.7843 99.7429 61.0222 93.0504 61.3019V61.3025Z" fill="#371A45"/>
</g>
<g opacity="0.6">
<path d="M100.894 53.0277C101.444 46.6203 98.6036 39.4274 92.6839 39.019C92.4856 38.4371 92.2728 37.8573 92.0472 37.2801V37.2753C99.1282 36.9806 102.235 45.9617 100.894 53.0277Z" fill="white"/>
</g>
<path d="M53.0003 84.8699C41.6946 84.8699 32.252 82.4655 24.9342 77.7236C18.3361 73.4479 13.747 67.3545 11.6635 60.1027C9.4193 52.2892 10.2135 43.4292 13.9013 35.1532C17.7751 26.4593 24.4847 18.9449 33.3034 13.4222C33.708 13.1682 34.2439 13.2909 34.4979 13.6966C34.7519 14.1022 34.6291 14.6376 34.223 14.8916C17.3844 25.4364 8.79287 43.8305 13.3295 59.6241C17.6218 74.5662 32.0811 83.1364 52.9992 83.1364C73.9173 83.1364 88.3771 74.5668 92.6694 59.6241C97.2061 43.8311 88.6145 25.4364 71.776 14.8916C71.3703 14.6376 71.2471 14.1028 71.5011 13.6966C71.7551 13.2904 72.2904 13.1677 72.6955 13.4222C81.5148 18.9449 88.2239 26.4593 92.0976 35.1532C95.785 43.4292 96.5796 52.2897 94.3354 60.1027C92.2525 67.3545 87.6633 73.4479 81.0652 77.7236C73.7474 82.4655 64.3049 84.8699 52.9992 84.8699H53.0003Z" fill="#371A45"/>
<path d="M93.0499 62.169C92.588 62.169 92.2037 61.8046 92.1845 61.3384C92.1641 60.8599 92.536 60.4558 93.0145 60.436C95.9923 60.3117 97.706 58.4126 98.6197 56.8414C99.8211 54.7762 100.439 51.905 100.316 48.9642C100.092 43.5953 97.414 37.921 92.0826 38.1418C91.6047 38.1627 91.2006 37.7903 91.1802 37.3117C91.1599 36.8332 91.5318 36.4292 92.0103 36.4093C98.535 36.1318 101.789 42.6886 102.048 48.8913C102.186 52.2013 101.501 55.334 100.118 57.7122C98.4954 60.5024 96.0641 62.0425 93.0863 62.1668C93.074 62.1668 93.0617 62.1674 93.0499 62.1674V62.169Z" fill="#371A45"/>
<path d="M98.931 58.8263C98.5366 58.8263 98.1797 58.5551 98.087 58.1543C97.9793 57.6881 98.2697 57.2224 98.7359 57.1142C103.573 55.9953 104.7 51.6183 104.142 47.8957C103.558 43.9994 100.963 40.1101 97.6674 40.3426C97.1868 40.3764 96.7752 40.0163 96.7414 39.5388C96.7082 39.0614 97.0678 38.6466 97.5452 38.6134C102.025 38.2978 105.165 43.0289 105.856 47.639C106.498 51.9227 105.121 57.4175 99.1266 58.8038C99.0607 58.8188 98.9948 58.8263 98.9305 58.8263H98.931Z" fill="#371A45"/>
<path d="M87.8788 29.2475C87.8788 29.2475 87.8343 29.3219 87.7325 29.4581C86.6822 30.8722 79.5417 38.9617 53.0003 40.2049C26.4588 38.9617 19.3184 30.8722 18.2681 29.4581C18.1662 29.3219 18.1218 29.2475 18.1218 29.2475C17.5323 25.6164 18.7584 23.7564 22.129 23.989C22.129 23.989 23.9198 26.7605 28.9774 29.4575C33.7155 31.9841 41.3194 34.4481 52.9997 34.5075C64.6806 34.4481 72.284 31.9836 77.0221 29.4575C82.0796 26.7605 83.8705 23.989 83.8705 23.989C87.2416 23.7559 88.4677 25.6164 87.8777 29.2475H87.8788Z" fill="#ED3248"/>
<g opacity="0.3">
<path d="M87.8788 29.2475C87.8788 29.2475 87.8343 29.322 87.7325 29.4581C86.6822 30.8722 79.5418 38.9617 53.0003 40.2049C31.2093 39.1846 22.4961 33.5499 19.4941 30.7806C23.6675 33.7204 32.7424 37.8889 51.1848 38.7532C77.7262 37.51 84.8667 29.4206 85.917 28.0064C86.0182 27.8703 86.0633 27.7958 86.0633 27.7958C86.3157 26.2456 86.2369 25.0168 85.798 24.1375C87.6955 24.6647 88.3369 26.4186 87.8788 29.2469V29.2475Z" fill="#371A45"/>
</g>
<path d="M91.2049 35.2787C91.2049 35.2787 79.0064 46.496 53.0002 46.5212C26.9936 46.4965 14.7956 35.2787 14.7956 35.2787C13.4335 31.4124 15.0555 29.0765 18.2659 29.4581H18.2686C19.3189 30.8722 26.4593 38.9617 53.0008 40.2049C79.5423 38.9617 86.6827 30.8722 87.733 29.4581H87.7357C90.9455 29.0765 92.5681 31.4124 91.2059 35.2787H91.2049Z" fill="#ED3248"/>
<g opacity="0.3">
<path d="M91.2049 35.2786C91.2049 35.2786 79.0064 46.4959 53.0003 46.5211C26.9936 46.4965 14.7956 35.2786 14.7956 35.2786C14.7785 35.2267 14.7608 35.1768 14.7463 35.1275C19.2171 38.2211 31.0238 44.7672 50.8852 44.7871C76.8919 44.7624 89.0898 33.5446 89.0898 33.5446C89.6744 31.8877 89.7093 30.5105 89.3052 29.51C91.4326 29.9655 92.3222 32.1085 91.2049 35.2786Z" fill="#371A45"/>
</g>
<path d="M53.0003 41.072C52.9869 41.072 52.9735 41.0719 52.9596 41.0709C23.7302 39.7028 17.6246 30.1028 17.3791 29.6944C17.3223 29.5996 17.2837 29.4951 17.2661 29.3863C16.8936 27.0912 17.1905 25.4509 18.1749 24.3717C19.043 23.42 20.3939 22.9998 22.1891 23.1242C22.4613 23.1429 22.7089 23.2887 22.8573 23.518C22.8718 23.54 24.5474 26.0361 29.0637 28.5177C33.2542 30.8203 40.8088 33.5784 53.0052 33.6405C76.4054 33.5205 83.0791 23.6177 83.1439 23.5175C83.2923 23.2881 83.5399 23.1424 83.8121 23.1236C85.6073 22.9988 86.9587 23.4194 87.8263 24.3711C88.8102 25.4504 89.1076 27.0906 88.7346 29.3858C88.7169 29.4945 88.6789 29.599 88.6221 29.6939C88.3766 30.1017 82.271 39.7017 53.0416 41.0703C53.0282 41.0709 53.0148 41.0714 53.0009 41.0714L53.0003 41.072ZM18.9481 28.9185C19.7536 29.9961 26.6737 38.0968 53.0003 39.3374C79.298 38.0984 86.2316 30.0138 87.0525 28.9174C87.2883 27.3045 87.1179 26.169 86.5445 25.5404C86.1056 25.0592 85.3624 24.8266 84.3271 24.8373C82.831 26.7766 75.0282 35.2621 53.0046 35.3751C30.973 35.2621 23.1692 26.7766 21.673 24.8373C20.6372 24.8271 19.895 25.0586 19.4556 25.5404C18.8822 26.169 18.7113 27.305 18.9476 28.9185H18.9481Z" fill="#371A45"/>
<path d="M53.0007 47.3876C39.4133 47.3742 29.6177 44.278 23.7928 41.6823C17.4358 38.8497 14.3374 36.0358 14.2088 35.9174C14.1043 35.8215 14.025 35.7009 13.9778 35.5675C13.1633 33.2552 13.2866 31.2672 14.3256 29.9698C15.1996 28.8788 16.6325 28.3906 18.3687 28.5975C18.8441 28.6543 19.1838 29.0851 19.127 29.561C19.0702 30.0363 18.6372 30.3733 18.1635 30.3192C17.3736 30.2249 16.3008 30.2763 15.6787 31.0539C15.064 31.8212 15.0164 33.1706 15.5404 34.7782C17.0457 36.0444 29.2372 45.6311 53.0007 45.6541C76.7584 45.6311 88.9499 36.0476 90.4594 34.7782C90.9835 33.17 90.9353 31.8207 90.3212 31.0533C89.6985 30.2758 88.6246 30.2254 87.8364 30.3192C87.3578 30.3744 86.9297 30.0363 86.8729 29.561C86.8166 29.0856 87.1558 28.6543 87.6311 28.5975C89.3652 28.3917 90.8002 28.8788 91.6742 29.9698C92.7133 31.2672 92.8365 33.2552 92.022 35.5675C91.9749 35.7015 91.8955 35.8215 91.7911 35.9174C91.6624 36.0358 88.5641 38.8502 82.2071 41.6823C76.3822 44.278 66.5866 47.3742 53.0002 47.3876H53.0007Z" fill="#371A45"/>
<path d="M71.5594 65.5133C69.2568 65.5133 66.8042 65.1334 64.8766 63.9095C60.8796 61.3711 58.2228 59.9993 54.7879 59.5486C53.6015 59.3927 52.3985 59.3927 51.212 59.5486C47.7782 59.9998 45.1203 61.3711 41.1233 63.9095C38.1749 65.7829 33.9952 65.6789 31.0067 65.2626C26.1903 64.5911 22.3546 61.1567 21.2341 56.514C19.941 51.1569 21.3016 44.8551 24.6197 40.8335C24.924 40.4642 25.4706 40.4117 25.8398 40.7166C26.209 41.0216 26.2616 41.5676 25.9572 41.9368C23.0153 45.5025 21.7662 51.3295 22.9194 56.1073C23.8716 60.0534 27.1398 62.9728 31.2462 63.5456C33.9459 63.9223 37.6895 64.037 40.1941 62.4466C44.3122 59.831 47.252 58.3204 50.9859 57.8301C52.3229 57.6543 53.6776 57.6543 55.014 57.8301C58.7485 58.3209 61.6882 59.831 65.8058 62.4466C68.311 64.037 72.0546 63.9229 74.7537 63.5456C78.8601 62.9733 82.1283 60.0534 83.0806 56.1073C84.2338 51.3295 82.9847 45.5025 80.0427 41.9368C79.7384 41.5676 79.7904 41.021 80.1601 40.7166C80.5293 40.4117 81.0759 40.4648 81.3803 40.8335C84.6984 44.8557 86.0589 51.1569 84.7659 56.514C83.6454 61.1573 79.8091 64.5911 74.9933 65.2626C73.958 65.4067 72.7796 65.5139 71.5589 65.5139L71.5594 65.5133Z" fill="#371A45"/>
<path d="M73.5218 13.2256C73.6016 13.0734 73.6735 12.9148 73.7356 12.7503C74.4558 10.8437 73.361 8.72645 71.425 8.08984C60.9102 4.63242 44.8202 4.80069 34.5332 8.09895C32.505 8.74949 31.4214 11.0173 32.2815 12.9662C32.3222 13.0579 32.3656 13.1473 32.4117 13.2352C33.1684 14.6639 34.8285 15.3573 36.4061 15.002C47.4792 12.5091 58.5079 12.388 69.4867 14.9832C71.0756 15.3589 72.7619 14.6708 73.5223 13.2261L73.5218 13.2256Z" fill="#3FCBFF"/>
<g opacity="0.3">
<path d="M73.7361 12.7498C73.674 12.9159 73.6022 13.074 73.5207 13.2251C72.7603 14.6692 71.0761 15.3578 69.4862 14.9811C58.5063 12.3881 47.4797 12.5092 36.406 15.001C34.8284 15.3578 33.1689 14.6639 32.4112 13.2347C32.3667 13.1479 32.3222 13.0563 32.2825 12.9647C31.8764 12.0483 31.9037 11.0623 32.2552 10.2055C32.2627 10.228 32.2724 10.25 32.2825 10.2725C32.3222 10.3641 32.3667 10.453 32.4112 10.5425C33.1689 11.9717 34.8284 12.6624 36.406 12.3088C47.4797 9.81697 58.5068 9.69587 69.4862 12.2889C71.0761 12.6656 72.7603 11.9771 73.5207 10.5329C73.5829 10.4214 73.637 10.3025 73.6868 10.1814C74.0164 10.9766 74.0635 11.8854 73.7361 12.7498Z" fill="#371A45"/>
</g>
<g opacity="0.6">
<path d="M73.8525 12.3778C73.5577 11.2016 72.6634 10.1883 71.425 9.78211C60.9086 6.3247 44.8192 6.49296 34.5327 9.78961C33.2772 10.1931 32.3828 11.2161 32.0881 12.4004C31.6347 10.5972 32.6974 8.68787 34.5327 8.09788C44.8187 4.80123 60.9081 4.63029 71.425 8.08824C73.2357 8.68251 74.3106 10.5752 73.8525 12.3778Z" fill="white"/>
</g>
<path d="M35.5776 15.9607C33.9427 15.9607 32.4123 15.0893 31.6449 13.6404C31.5892 13.5348 31.5367 13.4271 31.4879 13.3167C30.9885 12.1849 30.997 10.8812 31.5104 9.73871C32.0382 8.56409 33.0435 7.66544 34.268 7.27319C44.9006 3.864 61.3405 3.86132 71.695 7.26568C72.8734 7.65312 73.8557 8.5164 74.3899 9.63422C74.9118 10.7263 74.967 11.9411 74.5459 13.0563C74.4724 13.2519 74.3856 13.4442 74.2886 13.6286C73.3573 15.3985 71.3012 16.3009 69.2863 15.8256C58.7335 13.3317 47.7348 13.3387 36.5958 15.8465C36.256 15.9231 35.9147 15.9601 35.5776 15.9601V15.9607ZM53.1037 6.43616C46.5543 6.43616 39.9701 7.26569 34.7969 8.92419C34.0397 9.16694 33.4186 9.72263 33.0917 10.4498C32.775 11.1545 32.7681 11.924 33.0735 12.6158C33.1057 12.6881 33.1405 12.7594 33.1769 12.8291C33.7369 13.8863 34.985 14.4318 36.2142 14.1553C47.6132 11.5885 58.8739 11.5832 69.6845 14.1382C70.9277 14.4329 72.1902 13.8906 72.7539 12.8216C72.8177 12.7004 72.8745 12.5729 72.9233 12.4438C73.1762 11.775 73.1408 11.043 72.8252 10.3818C72.4935 9.68834 71.8842 9.15301 71.1527 8.9124C66.1322 7.2614 59.6343 6.43563 53.1026 6.43563L53.1037 6.43616Z" fill="#371A45"/>
<g opacity="0.3">
<path d="M6.13656 57.6913C2.97602 56.6136 1.39843 54.0876 0.979919 51.2491C1.64386 51.7196 3.25628 52.5394 4.3607 50.4217C4.3607 50.4217 4.95015 55.4669 6.03528 57.4807C6.07226 57.5498 6.10709 57.6216 6.13656 57.6913Z" fill="#371A45"/>
</g>
<path d="M64.3821 110.144C62.2579 110.144 60.8502 108.135 58.5428 104.745C57.3001 104.897 56.148 104.647 55.3185 104.034C54.7065 103.582 54.2837 102.952 54.0726 102.187H52.7345C52.5234 102.952 52.1006 103.582 51.4886 104.034C50.6596 104.647 49.5075 104.897 48.2643 104.745C45.4189 108.925 43.942 111.004 40.8024 109.809C37.5802 108.581 34.088 100.679 36.0294 93.6292C37.7367 87.4287 39.6256 86.3135 40.4396 86.1383C41.1303 85.8184 44.3541 84.4493 47.0774 85.432C48.2809 85.8666 49.2101 86.6844 49.8467 87.8665C52.204 88.0535 54.5875 88.0535 56.9448 87.8675C57.5466 86.6881 58.4458 85.8677 59.6236 85.4245C62.348 84.3989 65.6655 85.813 66.3664 86.1383C67.1804 86.3135 69.0688 87.4292 70.7766 93.6292C72.7181 100.679 69.2258 108.581 66.0036 109.809C65.4104 110.035 64.8762 110.144 64.381 110.144H64.3821ZM58.9468 102.93C59.2297 102.93 59.4998 103.069 59.6633 103.31L59.838 103.566C62.9278 108.108 63.6196 108.863 65.3874 108.189C67.4398 107.407 70.9325 100.721 69.1063 94.0895C67.5968 88.6076 66.136 87.8927 65.9919 87.8349C65.8981 87.822 65.807 87.7941 65.7218 87.7513C65.6912 87.7363 62.5168 86.186 60.2302 87.0493C59.3546 87.3799 58.7314 88.0235 58.3247 89.017C58.202 89.3165 57.9228 89.5228 57.6002 89.5523C54.8158 89.8036 51.9918 89.8036 49.2064 89.5523C48.8923 89.5239 48.618 89.3267 48.491 89.0379C48.0516 88.0379 47.3978 87.3928 46.4938 87.0648C44.1971 86.231 41.1158 87.7363 41.0848 87.7518C41.0001 87.7936 40.909 87.8215 40.8158 87.8343C40.6732 87.8917 39.2119 88.6044 37.7013 94.0895C35.8751 100.721 39.3679 107.407 41.4197 108.189C43.1875 108.862 43.8793 108.109 46.9691 103.566L47.1433 103.31C47.3426 103.018 47.6979 102.875 48.0457 102.951C49.007 103.162 49.9089 103.046 50.4576 102.64C50.8622 102.341 51.0932 101.873 51.1446 101.25C51.1816 100.8 51.5572 100.454 52.0084 100.454H54.7971C55.2483 100.454 55.6239 100.8 55.6609 101.25C55.7123 101.873 55.9433 102.341 56.3479 102.64C56.8961 103.045 57.7979 103.162 58.7598 102.951C58.822 102.938 58.8841 102.931 58.9457 102.931L58.9468 102.93Z" fill="#371A45"/>
<path d="M39.6255 85.0661C39.6255 85.0661 37.1488 86.8307 35.4152 88.8123C33.6817 90.7939 32.8147 92.775 32.6909 96.3048C32.5671 99.834 32.6909 107.017 32.6909 107.017C32.6909 107.017 32.6293 110.763 36.2823 110.144C39.9358 109.524 39.6571 105.438 38.728 103.518C38.728 103.518 40.1212 103.116 40.9572 104.54C41.7931 105.964 44.6412 104.416 43.248 101.971C43.248 101.971 46.468 101.258 45.2602 99.2773C44.0529 97.2956 42.5358 95.8407 42.5358 95.8407C42.5358 95.8407 41.3285 94.8188 39.2231 95.9029C39.2231 95.9029 42.4431 93.3334 43.6504 92.745C44.8577 92.1567 44.5791 89.1537 41.9474 88.9988C43.9596 86.8007 42.8381 83.7066 39.6255 85.0666V85.0661Z" fill="#FCC090"/>
<g opacity="0.3">
<path d="M70.1524 104.907C69.3153 108.674 67.3835 111.626 65.7979 112.23C63.1973 113.221 62.0827 111.487 59.0487 107.029C57.0922 107.458 55.0859 106.811 54.9 104.552H52.1113C51.9254 106.814 49.9191 107.458 47.9627 107.029C44.9286 111.487 43.814 113.221 41.2134 112.23C40.6041 112 39.9455 111.42 39.3164 110.583C39.1777 111.244 38.8979 111.868 38.4248 112.361C37.9516 112.857 37.2877 113.224 36.3836 113.377C36.3836 113.377 28.5348 114.985 23.8508 115.636H23.846C23.8138 115.64 23.7817 115.645 23.7495 115.648V112.403C28.433 111.752 36.2824 110.145 36.2824 110.145C36.2824 110.145 43.1704 94.5434 34.1844 93.8768C34.551 93.238 34.9941 92.641 35.5171 92.0441C37.2507 90.0625 39.7275 88.2989 39.7275 88.2989C42.94 86.9389 44.0621 90.0324 42.0483 92.2295C44.3863 92.3683 44.8669 94.7534 44.0991 95.6944C45.1193 95.7587 46.4027 96.2565 47.6535 97.884H59.3589C62.0833 94.3349 64.9614 96.1504 64.9614 96.1504L69.5758 95.5288C69.6921 95.883 69.8062 96.2571 69.9225 96.6584C69.9621 96.7994 70.0045 96.9435 70.0436 97.092C70.7793 99.7595 70.6898 102.499 70.1524 104.907Z" fill="#371A45"/>
</g>
<g opacity="0.6">
<path d="M42.412 85.2284C42.0085 85.2359 41.5429 85.3399 41.0225 85.5601C41.0225 85.5601 38.5458 87.3263 36.8122 89.3074C35.0787 91.2891 34.2117 93.2702 34.0879 96.7999C33.9641 100.329 34.0879 107.512 34.0879 107.512C34.0879 107.512 34.0584 109.308 35.2518 110.207C32.641 110.021 32.6909 107.017 32.6909 107.017C32.6909 107.017 32.5671 99.834 32.6909 96.3048C32.8147 92.7756 33.6817 90.7939 35.4152 88.8123C37.1488 86.8307 39.6255 85.065 39.6255 85.065C40.9111 84.52 41.8622 84.691 42.412 85.2284Z" fill="white"/>
</g>
<g opacity="0.6">
<path d="M43.4083 89.4984C43.3883 89.4957 43.3656 89.4957 43.3434 89.4936C43.351 89.486 43.3586 89.4763 43.3661 89.4687C43.3813 89.4763 43.3959 89.4887 43.4088 89.499L43.4083 89.4984Z" fill="white"/>
</g>
<path d="M35.5005 111.08C34.5772 111.08 33.7969 110.811 33.1737 110.276C31.8598 109.147 31.8228 107.248 31.8234 107.022C31.818 106.717 31.7028 99.7263 31.8234 96.2742C31.9461 92.7697 32.7702 90.5174 34.762 88.2416C36.5422 86.2074 39.0174 84.4348 39.1219 84.3603C39.1733 84.3239 39.229 84.2928 39.2869 84.2681C40.9926 83.5463 42.4962 83.8035 43.3107 84.9567C43.9934 85.9234 43.9875 87.2513 43.3659 88.4688C44.4173 88.9661 44.9741 89.9189 45.1402 90.7473C45.3797 91.9466 44.9231 93.0885 44.0299 93.5236C43.6301 93.7182 42.9362 94.1897 42.2084 94.7181C42.7566 94.8987 43.0674 95.1543 43.0958 95.1784C43.1098 95.1896 43.1232 95.202 43.136 95.2143C43.2014 95.277 44.7485 96.7715 46.0002 98.8255C46.5479 99.7241 46.4305 100.458 46.2355 100.915C45.8915 101.722 45.0646 102.22 44.3942 102.503C44.7388 103.875 44.1118 105.053 43.1446 105.612C42.0536 106.243 40.7911 105.971 40.2086 104.978C40.1529 104.884 40.0945 104.803 40.0344 104.732C40.3024 106.03 40.2643 107.54 39.6309 108.769C39.0077 109.977 37.8995 110.747 36.4264 110.998C36.1033 111.052 35.7941 111.08 35.4999 111.08L35.5005 111.08ZM40.051 85.8281C39.6256 86.1399 37.5437 87.6956 36.0669 89.383C34.6088 91.049 33.6807 92.7933 33.5563 96.3348C33.4347 99.8013 33.5558 106.93 33.5563 107.002V107.031C33.5542 107.387 33.6844 108.435 34.3082 108.966C34.7202 109.316 35.3354 109.424 36.136 109.289C37.0765 109.13 37.7157 108.7 38.0898 107.975C38.7033 106.786 38.474 104.986 37.9467 103.896C37.8352 103.667 37.8315 103.399 37.9354 103.166C38.0394 102.932 38.2414 102.757 38.4869 102.686C39.1926 102.482 40.7734 102.516 41.7037 104.102C41.8521 104.354 42.2594 104.122 42.2765 104.112C42.7106 103.861 42.9951 103.28 42.4941 102.4C42.3579 102.161 42.3435 101.871 42.4549 101.619C42.5664 101.367 42.7909 101.184 43.0599 101.124C43.6172 100.998 44.4784 100.619 44.6407 100.235C44.6595 100.19 44.7179 100.054 44.5196 99.7284C43.4795 98.0217 42.1768 96.7045 41.9646 96.495C41.8617 96.4264 41.051 95.9372 39.6197 96.674C39.2242 96.8782 38.7376 96.7485 38.4954 96.3739C38.2532 95.9999 38.3341 95.5031 38.6824 95.225C39.0195 94.956 42.0134 92.5778 43.2705 91.9653C43.3804 91.9117 43.5347 91.5634 43.4399 91.0876C43.3713 90.743 43.0824 89.9339 41.8966 89.8637C41.5627 89.8438 41.2696 89.6343 41.1442 89.324C41.0183 89.0143 41.0821 88.6596 41.3082 88.4131C42.1597 87.4833 42.246 86.4534 41.8955 85.9567C41.5911 85.5258 40.9218 85.4803 40.0516 85.8281H40.051Z" fill="#371A45"/>
<path d="M42.3328 89.7747C40.5993 90.4392 38.8926 91.3904 37.4221 92.5505C36.9179 92.946 36.4522 93.3886 36.0032 93.8591C37.0031 92.1507 38.4006 90.6948 39.9246 89.435C40.4482 89.0084 40.9621 88.613 41.5623 88.2218L42.3323 89.7752L42.3328 89.7747Z" fill="#371A45"/>
<path d="M39.7119 96.6182C38.7698 96.9253 37.8267 97.2859 36.9838 97.832C37.4216 96.8712 38.0619 96.0079 38.7344 95.1864L39.7119 96.6182Z" fill="#371A45"/>
<path d="M42.5016 102.412C41.9807 101.355 41.2418 100.025 40.2091 99.4627C39.7574 99.2167 39.0999 99.4176 38.534 99.7697C37.9644 100.129 37.443 100.606 36.9832 101.135C37.3278 100.522 37.7409 99.9385 38.2677 99.4278C40.1154 97.5898 41.9148 99.1797 43.2727 100.651C43.5245 100.933 43.7534 101.204 43.994 101.529L42.5016 102.412Z" fill="#371A45"/>
<path d="M66.8069 85.0661C66.8069 85.0661 69.2837 86.8307 71.0177 88.8123C72.7513 90.7939 73.6183 92.775 73.7421 96.3048C73.8659 99.8346 73.7421 107.017 73.7421 107.017C73.7421 107.017 73.8037 110.763 70.1507 110.144C66.4972 109.524 66.7758 105.438 67.705 103.518C67.705 103.518 66.3118 103.116 65.4758 104.54C64.6399 105.964 61.7917 104.416 63.185 101.971C63.185 101.971 59.965 101.258 61.1728 99.2773C62.3801 97.2956 63.8972 95.8407 63.8972 95.8407C63.8972 95.8407 65.1045 94.8188 67.2099 95.9029C67.2099 95.9029 63.9899 93.3334 62.7826 92.745C61.5752 92.1567 61.8539 89.1537 64.4855 88.9988C62.4734 86.8007 63.5949 83.7066 66.8074 85.0666L66.8069 85.0661Z" fill="#FCC090"/>
<g opacity="0.3">
<path d="M73.741 107.017C73.741 107.017 73.8032 110.764 70.1496 110.145C68.6165 109.885 67.7768 109.013 67.3856 107.948C67.5217 107.983 67.6632 108.015 67.8116 108.04C71.4652 108.659 71.403 104.911 71.403 104.911C71.403 104.911 71.5268 97.7286 71.403 94.1994C71.2792 90.6702 70.4122 88.6885 68.6787 86.7069C68.4681 86.4668 68.2452 86.2289 68.0174 85.9958C68.8844 86.6967 70.0633 87.7224 71.0167 88.8118C72.7502 90.7934 73.6172 92.7745 73.741 96.3043C73.8648 99.8335 73.741 107.016 73.741 107.016V107.017Z" fill="#371A45"/>
</g>
<path d="M70.932 111.08C70.6378 111.08 70.3291 111.053 70.0055 110.998C68.5319 110.748 67.4242 109.978 66.8005 108.769C66.1671 107.541 66.1296 106.032 66.397 104.734C66.3369 104.804 66.2785 104.884 66.2233 104.979C65.6414 105.972 64.3783 106.243 63.2873 105.612C62.3201 105.053 61.6931 103.875 62.0377 102.503C61.3678 102.22 60.541 101.722 60.1964 100.916C60.0014 100.458 59.884 99.7241 60.4317 98.826C61.6829 96.772 63.231 95.2775 63.2959 95.2148C63.3087 95.2025 63.3227 95.1901 63.3361 95.1789C63.365 95.1548 63.6753 94.8992 64.2235 94.7186C63.4952 94.1907 62.8013 93.7192 62.4015 93.5241C61.5082 93.089 61.0517 91.9471 61.2918 90.7478C61.4579 89.9188 62.0141 88.9666 63.0655 88.4693C62.4439 87.2518 62.4374 85.9239 63.1207 84.9572C63.9352 83.804 65.4394 83.5474 67.1445 84.2686C67.2024 84.2933 67.2581 84.3244 67.3095 84.3608C67.414 84.4353 69.8892 86.2079 71.6693 88.2421C73.6612 90.5179 74.4848 92.7702 74.608 96.2747C74.7291 99.7268 74.6139 106.718 74.608 107.023C74.608 107.249 74.5716 109.148 73.2577 110.276C72.6344 110.812 71.8542 111.081 70.9309 111.081L70.932 111.08ZM67.2677 102.597C67.533 102.597 67.7672 102.634 67.9456 102.685C68.191 102.756 68.3925 102.932 68.497 103.165C68.601 103.399 68.5972 103.666 68.4858 103.896C67.9585 104.985 67.7291 106.785 68.3427 107.974C68.7167 108.699 69.3555 109.129 70.2965 109.289C71.097 109.425 71.7122 109.316 72.1243 108.966C72.748 108.435 72.8788 107.386 72.8761 107.027C72.8772 106.93 72.9983 99.8013 72.8761 96.3348C72.7518 92.7932 71.8231 91.049 70.3656 89.383C68.8887 87.6955 66.8074 86.1393 66.3819 85.828C65.5112 85.4802 64.8419 85.5258 64.5375 85.9566C64.187 86.4534 64.2733 87.4828 65.1248 88.413C65.3504 88.6595 65.4147 89.0143 65.2888 89.324C65.1634 89.6343 64.8703 89.8438 64.5364 89.8636C63.3506 89.9333 63.0623 90.743 62.9937 91.0875C62.8983 91.5634 63.0531 91.9122 63.1625 91.9653C64.4196 92.5778 67.414 94.956 67.7511 95.225C68.0994 95.5031 68.1803 95.9998 67.9381 96.3739C67.6964 96.7479 67.2099 96.8781 66.8139 96.6739C65.411 95.9521 64.6039 96.4071 64.4625 96.5014C64.2331 96.7286 62.9444 98.0377 61.9139 99.7284C61.7156 100.054 61.774 100.19 61.7928 100.235C61.9552 100.618 62.8163 100.998 63.3757 101.125C63.6437 101.185 63.8677 101.37 63.9786 101.621C64.0895 101.872 64.0756 102.161 63.9395 102.4C63.4379 103.28 63.723 103.862 64.157 104.112C64.1747 104.122 64.582 104.355 64.7299 104.102C65.4254 102.917 66.4843 102.598 67.2693 102.598L67.2677 102.597Z" fill="#371A45"/>
<path d="M64.8698 88.2212C67.0807 89.719 69.0613 91.564 70.4288 93.8585C68.6932 92.0227 66.4281 90.6835 64.0992 89.7741L64.8692 88.2207L64.8698 88.2212Z" fill="#371A45"/>
<path d="M67.6981 95.1864C68.37 96.0079 69.0109 96.8717 69.4487 97.832C68.6058 97.2859 67.6622 96.9253 66.7206 96.6182L67.6981 95.1864Z" fill="#371A45"/>
<path d="M62.4385 101.529C62.9052 100.904 63.3859 100.377 63.9475 99.8511C64.5107 99.3549 65.1216 98.8512 65.9666 98.6347C67.5855 98.3207 68.7413 99.9294 69.4487 101.135C68.9889 100.606 68.467 100.129 67.8979 99.7697C67.332 99.4176 66.675 99.2161 66.2233 99.4626C65.1907 100.025 64.4523 101.355 63.9309 102.412L62.4385 101.529Z" fill="#371A45"/>
<path d="M50.1521 88.6885L49.2851 92.3421L48.4181 88.6885C48.3045 88.21 48.6008 87.7293 49.0793 87.6162C49.7079 87.4507 50.3145 88.0658 50.1521 88.6885Z" fill="#371A45"/>
<path d="M83.2172 113.89V120.906C83.2172 120.906 67.6133 131.888 63.1849 133.647C62.1817 134.046 60.6958 134.187 58.9992 134.165C57.8401 134.088 56.5969 133.999 55.2541 133.917H55.2492C50.189 133.372 44.9504 132.124 44.9504 132.124L23.7488 121.155V114.881C23.7488 114.881 60.8442 125.945 83.2172 113.89Z" fill="#494963"/>
<g opacity="0.3">
<path d="M83.2172 112.221V120.907C83.2172 120.907 79.8139 123.304 75.7322 126.036C69.0773 126.702 59.6996 127.542 59.6996 127.542C77.379 120.555 68.6234 109.194 68.6234 109.194L71.6923 109.58C71.8386 109.942 71.9276 110.145 71.9276 110.145C71.9276 110.145 78.5107 111.495 83.2167 112.221H83.2172Z" fill="#371A45"/>
</g>
<path d="M58.4801 88.6885L57.6131 92.342L56.746 88.6885C56.6324 88.21 56.9282 87.7293 57.4073 87.6162C58.0353 87.4501 58.6425 88.0658 58.4796 88.6885H58.4801Z" fill="#371A45"/>
<path d="M59.3229 135.024C53.4798 135.024 45.1969 133.074 44.75 132.968C44.6814 132.952 44.615 132.928 44.5523 132.895L23.3507 121.925C23.063 121.776 22.8818 121.479 22.8818 121.155V112.741C22.8818 112.262 23.2698 111.874 23.7489 111.874C24.2279 111.874 24.6159 112.262 24.6159 112.741V120.627L45.2543 131.305C49.1061 132.213 59.473 134.19 62.8645 132.842C66.7768 131.288 79.9715 122.119 82.3507 120.456V112.221C82.3507 111.741 82.7387 111.354 83.2177 111.354C83.6968 111.354 84.0848 111.741 84.0848 112.221V120.907C84.0848 121.189 83.9476 121.454 83.7166 121.616C83.0763 122.067 67.9777 132.677 63.5054 134.454C62.4733 134.864 60.9986 135.024 59.3235 135.024H59.3229Z" fill="#371A45"/>
<path d="M56.2 120.372C52.2024 120.372 48.3903 120.121 45.0031 119.768C32.9911 118.515 23.5947 115.739 23.5014 115.712C23.0427 115.575 22.7817 115.092 22.9184 114.634C23.055 114.175 23.5373 113.913 23.9971 114.051C24.0893 114.078 33.3565 116.813 45.2142 118.047C56.096 119.179 71.4508 119.245 82.8063 113.127C83.2275 112.9 83.7537 113.058 83.9804 113.479C84.2076 113.901 84.0495 114.427 83.6283 114.653C75.4515 119.059 65.343 120.372 56.1995 120.372H56.2Z" fill="#371A45"/>
<path d="M56.6934 130.732C56.6934 130.732 33.2686 119.492 19.6463 120.076C6.02403 120.659 6.18908 134.53 14.1971 139.648C22.2056 144.767 41.2771 142.538 41.2771 142.538" fill="#5F566D"/>
<g opacity="0.3">
<path d="M47.3088 137.92L41.2776 142.539C41.2776 142.539 22.2061 144.769 14.196 139.649C9.90853 136.907 7.86795 131.656 8.9922 127.279C9.67328 130.165 11.484 132.902 14.196 134.635C22.2061 139.752 41.2776 137.523 41.2776 137.523L47.3088 137.92V137.92Z" fill="#371A45"/>
</g>
<g opacity="0.6">
<path d="M56.6935 130.732L55.1802 131.891C49.7856 129.444 31.1921 121.442 19.6453 121.937C12.4797 122.244 9.12888 126.226 8.7302 130.68C8.27686 125.536 11.4921 120.426 19.6453 120.077C33.2675 119.492 56.6935 130.732 56.6935 130.732Z" fill="white"/>
</g>
<path d="M31.9102 143.899C25.8018 143.899 18.1979 143.235 13.7304 140.38C9.20015 137.485 6.86752 131.836 8.18254 126.95C9.437 122.289 13.6018 119.468 19.6088 119.211C33.2895 118.619 56.104 129.489 57.0686 129.951C57.5005 130.158 57.6822 130.676 57.4753 131.108C57.2679 131.54 56.7492 131.721 56.3189 131.514C56.0863 131.403 32.9315 120.368 19.6833 120.943C14.4833 121.166 10.9015 123.519 9.85712 127.401C8.73341 131.576 10.7547 136.421 14.6644 138.919C22.3192 143.812 40.9888 141.7 41.1769 141.678C41.6517 141.622 42.0831 141.963 42.1383 142.438C42.194 142.913 41.8532 143.344 41.3779 143.399C41.0188 143.441 36.9795 143.899 31.9107 143.899H31.9102Z" fill="#371A45"/>
<path d="M86.6034 141.796C75.3738 146.336 57.4587 143.116 57.4587 143.116C42.0209 152.528 32.6904 143.778 38.7167 136.595C44.7452 129.412 54.8581 130.733 54.8581 130.733C66.6231 121.898 85.9421 116.781 93.702 122.478C101.465 128.174 97.8309 137.254 86.6034 141.797V141.796Z" fill="#5F566D"/>
<g opacity="0.3">
<path d="M86.6034 141.796C75.3738 146.336 57.4587 143.116 57.4587 143.116C43.898 151.384 35.0487 145.638 37.1836 139.248C39.5763 142.995 46.9916 144.481 56.9512 138.41C56.9512 138.41 74.8658 141.631 86.0959 137.09C92.4143 134.534 96.3278 130.541 97.16 126.524C99.5601 131.854 95.4264 138.227 86.6039 141.796H86.6034Z" fill="#371A45"/>
</g>
<path d="M57.4587 143.116C42.0209 152.528 32.6904 143.778 38.7167 136.595C44.7452 129.412 54.8581 130.733 54.8581 130.733C54.8581 130.733 60.9262 132.88 57.4587 143.116Z" fill="#494963"/>
<g opacity="0.6">
<path d="M96.8149 125.848C96.2501 125.19 95.5642 124.558 94.754 123.964C86.9941 118.267 67.675 123.384 55.9101 132.219C55.9101 132.219 45.7972 130.898 39.7687 138.081C37.8171 140.407 37.4752 142.898 38.4338 144.882C36.3558 142.769 36.2368 139.55 38.7162 136.595C44.7447 129.412 54.8576 130.733 54.8576 130.733C66.6226 121.898 85.9417 116.781 93.7015 122.478C95.1034 123.508 96.1338 124.647 96.8149 125.849V125.848Z" fill="white"/>
</g>
<path d="M45.0646 148.101C41.6527 148.101 39.0479 146.947 37.5083 145.157C35.3231 142.615 35.5374 139.035 38.0533 136.037C43.7367 129.264 52.6873 129.662 54.6121 129.834C60.4059 125.556 68.2189 122.005 75.5876 120.311C83.7537 118.434 90.3689 118.954 94.2159 121.778C97.4831 124.176 99.051 127.344 98.6315 130.697C98.0399 135.425 93.6645 139.875 86.9276 142.599C76.2987 146.898 60.1937 144.455 57.6301 144.026C52.7939 146.921 48.5161 148.102 45.0646 148.102V148.101ZM53.0019 131.51C49.949 131.51 43.5674 132.162 39.3812 137.151C37.4103 139.5 37.1965 142.134 38.8228 144.026C41.3864 147.008 48.1705 147.764 57.0075 142.376L57.2883 142.205L57.6125 142.263C57.7893 142.294 75.415 145.384 86.2781 140.992C92.4245 138.506 96.3996 134.577 96.9119 130.481C97.2548 127.74 95.9677 125.214 93.1903 123.175C89.8063 120.69 83.5323 120.263 75.9766 122C68.7151 123.669 61.0152 127.193 55.379 131.425L55.0966 131.637L54.7472 131.592C54.7225 131.588 54.0634 131.51 53.0029 131.51H53.0019Z" fill="#371A45"/>
<path d="M57.4587 143.984C57.3665 143.984 57.2727 143.969 57.1806 143.937C56.7272 143.784 56.4839 143.292 56.6377 142.838C59.764 133.608 54.7761 131.627 54.5623 131.547C54.1165 131.38 53.8844 130.885 54.0473 130.437C54.2097 129.99 54.7 129.756 55.1475 129.915C55.2214 129.941 56.9737 130.579 58.2035 132.641C59.7779 135.279 59.8031 138.897 58.2802 143.394C58.1574 143.755 57.8204 143.983 57.4592 143.983L57.4587 143.984Z" fill="#371A45"/>
<g opacity="0.3">
<path d="M92.82 92.0693C93.7486 93.1217 94.6751 94.2562 95.532 95.4329C92.9534 94.2465 92.9239 97.474 92.9239 97.474L91.1851 96.5475C87.262 95.4699 73.9714 93.9095 73.9714 93.9095L73.9687 93.8821L73.7978 92.4556C92.0124 94.6152 95.0465 86.5064 95.517 84.4605C96.1734 84.9262 96.8047 85.4117 97.3968 85.9218L92.8195 92.0693H92.82Z" fill="#371A45"/>
</g>
<g opacity="0.3">
<path d="M31.3281 80.1071C31.3281 80.1071 37.7516 89.6595 24.3517 93.8585L32.8671 93.5542C32.8671 93.5542 35.5802 86.3146 39.6812 84.4605L37.2312 82.3519" fill="#371A45"/>
</g>
<g opacity="0.2">
<path d="M53.7574 169.002C79.5874 169.002 100.527 166.932 100.527 164.378C100.527 161.825 79.5874 159.755 53.7574 159.755C27.9274 159.755 6.98804 161.825 6.98804 164.378C6.98804 166.932 27.9274 169.002 53.7574 169.002Z" fill="#371A45"/>
</g>
</svg>
