<svg width="42" height="32" viewBox="0 0 42 32" fill="none" xmlns="http://www.w3.org/2000/svg">
<g opacity="0.5">
<path d="M37.1086 0.0111663L1.9518 3.49905C0.761198 3.61968 -0.109467 4.67915 0.0111662 5.86975L1.81542 24.0539L2.60216 32L8.79642 23.3616L39.1226 20.351C40.3132 20.2304 41.1839 19.1709 41.0632 17.9803L39.474 1.95179C39.3534 0.76119 38.2939 -0.109467 37.1033 0.0111663H37.1086Z" fill="black"/>
<path d="M12.2018 10.2029C12.1093 9.99267 11.9964 9.80731 11.8631 9.64677C11.7318 9.48387 11.5805 9.34902 11.4092 9.24222C11.24 9.13521 11.0522 9.05937 10.8458 9.0147C10.6393 8.97004 10.4167 8.95955 10.178 8.98326C9.78652 9.02212 9.44058 9.15856 9.14017 9.39256C8.83977 9.62656 8.61446 9.94976 8.46426 10.3622C8.31407 10.7746 8.26737 11.2668 8.32417 11.839C8.38098 12.4111 8.52463 12.8845 8.75514 13.2591C8.98565 13.6337 9.27441 13.9059 9.62142 14.0756C9.96842 14.2453 10.3463 14.3099 10.7549 14.2693C11.1335 14.2317 11.4589 14.118 11.7311 13.928C12.0052 13.7357 12.2082 13.4832 12.34 13.1703C12.4738 12.8551 12.5206 12.4953 12.4805 12.091L12.7308 12.1183L10.7434 12.3156L10.6729 11.6058L13.1895 11.3559L13.2599 12.0657C13.314 12.6099 13.2448 13.0946 13.0524 13.5199C12.8622 13.945 12.5749 14.2884 12.1903 14.5503C11.8078 14.8099 11.3541 14.9657 10.8292 15.0178C10.2442 15.0759 9.71648 14.9893 9.24606 14.758C8.77779 14.5264 8.39479 14.1691 8.09704 13.6861C7.80144 13.2028 7.61904 12.6127 7.54985 11.9159C7.49796 11.3932 7.52121 10.9163 7.61958 10.4851C7.7199 10.0516 7.88448 9.67471 8.11333 9.35441C8.34218 9.03411 8.62519 8.77795 8.96234 8.58591C9.2995 8.39387 9.67994 8.27682 10.1037 8.23475C10.4521 8.20016 10.7821 8.22061 11.0937 8.2961C11.4072 8.36923 11.6918 8.48977 11.9474 8.65771C12.2049 8.82328 12.4264 9.03045 12.6119 9.2792C12.7971 9.52581 12.9357 9.80636 13.0278 10.1209L12.2018 10.2029ZM18.9537 9.53251C18.8612 9.32232 18.7483 9.13695 18.615 8.97641C18.4837 8.81351 18.3324 8.67866 18.1611 8.57186C17.9919 8.46485 17.8041 8.38901 17.5976 8.34434C17.3912 8.29968 17.1686 8.2892 16.9299 8.3129C16.5384 8.35177 16.1925 8.4882 15.8921 8.7222C15.5917 8.9562 15.3664 9.27941 15.2162 9.69181C15.066 10.1042 15.0193 10.5965 15.0761 11.1686C15.1329 11.7408 15.2765 12.2141 15.507 12.5887C15.7375 12.9633 16.0263 13.2355 16.3733 13.4052C16.7203 13.5749 17.0982 13.6395 17.5068 13.5989C17.8854 13.5614 18.2108 13.4476 18.483 13.2577C18.7571 13.0654 18.9601 12.8128 19.0919 12.5C19.2257 12.1848 19.2725 11.825 19.2324 11.4206L19.4827 11.4479L17.4953 11.6452L17.4248 10.9354L19.9414 10.6856L20.0118 11.3954C20.0659 11.9395 19.9967 12.4243 19.8043 12.8495C19.6141 13.2746 19.3268 13.6181 18.9422 13.88C18.5597 14.1395 18.106 14.2953 17.5811 14.3475C16.9961 14.4055 16.4684 14.3189 15.998 14.0876C15.5297 13.8561 15.1467 13.4988 14.8489 13.0157C14.5533 12.5325 14.3709 11.9424 14.3017 11.2455C14.2499 10.7228 14.2731 10.2459 14.3715 9.81477C14.4718 9.38125 14.6364 9.00435 14.8652 8.68405C15.0941 8.36375 15.3771 8.10759 15.7142 7.91555C16.0514 7.72351 16.4318 7.60646 16.8556 7.56439C17.204 7.5298 17.534 7.55025 17.8456 7.62574C18.1591 7.69888 18.4437 7.81941 18.6993 7.98735C18.9568 8.15292 19.1783 8.36009 19.3637 8.60884C19.549 8.85545 19.6876 9.136 19.7796 9.45051L18.9537 9.53251ZM24.195 13.5996L23.539 6.99206L27.5267 6.59614L27.5972 7.30593L24.4096 7.62241L24.6312 9.85503L27.6124 9.55905L27.6828 10.2688L24.7017 10.5648L24.9247 12.8103L28.1639 12.4887L28.2344 13.1985L24.195 13.5996ZM29.4055 13.0822L29.3479 12.5015L32.3818 6.83089L28.7812 7.18837L28.7108 6.47858L33.2663 6.02628L33.324 6.60702L30.29 12.2776L33.8906 11.9202L33.9611 12.63L29.4055 13.0822Z" fill="white"/>
</g>
</svg>
