<svg width="27" height="45" viewBox="0 0 27 45" fill="none" xmlns="http://www.w3.org/2000/svg">
<g opacity="0.5">
<path d="M21.8207 40.356C21.8207 40.356 23.9015 38.4532 24.371 34.3239C24.8405 30.1946 24.8183 25.5982 24.7194 24.7976L23.6395 24.6616C23.6395 24.6616 23.259 31.571 23.1478 32.8437C23.0365 34.1163 20.3109 39.7605 20.3109 39.7605L21.8207 40.3585V40.356Z" fill="#221C5A"/>
<path d="M24.0868 24.6715C24.0868 24.6715 24.2079 28.3659 23.8174 32.0282C23.4294 35.6905 22.6782 38.7251 20.2639 40.2004L15.3018 38.9351C15.3018 38.9351 19.053 37.5414 19.8364 34.4747C20.6197 31.4079 20.4937 24.3206 20.4937 24.3206L24.0868 24.6715Z" fill="#27218F"/>
<path d="M23.8743 31.4549C24.193 27.9903 24.0868 24.6715 24.0868 24.6715L20.4937 24.3206C20.4937 24.3206 20.5975 30.3008 20.0069 33.6518C21.2425 33.1526 23.1527 32.2481 23.8743 31.4524V31.4549Z" fill="#221C5A"/>
<path d="M20.2416 39.0488C20.212 39.0488 20.1848 39.0364 20.1601 39.0142C20.1106 38.9672 20.1082 38.8882 20.1551 38.8387C20.1576 38.8363 20.4171 38.562 20.7581 38.0826C20.7976 38.0257 20.8742 38.0134 20.9311 38.0529C20.9854 38.0924 21.0003 38.1691 20.9607 38.2259C20.6098 38.7201 20.3454 38.9969 20.3355 39.0093C20.3108 39.0364 20.2762 39.0488 20.2416 39.0463V39.0488Z" fill="#221C5A"/>
<path d="M21.408 37.4129C21.3883 37.4129 21.3685 37.4079 21.3512 37.3956C21.2919 37.361 21.2721 37.2868 21.3042 37.2275C21.7441 36.4541 22.0629 35.6559 22.2507 34.8577C22.8067 32.5002 22.7177 30.7803 22.7177 30.763C22.7128 30.6938 22.7672 30.6369 22.8339 30.632C22.9006 30.6295 22.9599 30.6814 22.9649 30.7481C22.9649 30.7654 23.0563 32.52 22.4904 34.9145C22.2977 35.735 21.969 36.5554 21.5168 37.3486C21.4921 37.3906 21.45 37.4129 21.4056 37.4104L21.408 37.4129Z" fill="#221C5A"/>
<path d="M18.3191 38.4285C18.282 38.4285 18.2474 38.4088 18.2227 38.3766C18.1832 38.3223 18.1955 38.2432 18.2499 38.2037C18.2647 38.1938 19.7499 37.1089 20.3726 35.2333C21.0052 33.3354 21.067 31.791 21.0695 31.7761C21.072 31.7069 21.1288 31.655 21.198 31.6575C21.2672 31.66 21.3191 31.7168 21.3166 31.786C21.3166 31.8008 21.2524 33.3799 20.6074 35.3124C19.9575 37.2671 18.4575 38.3593 18.3932 38.4063C18.371 38.4236 18.3438 38.431 18.3166 38.4285H18.3191Z" fill="#221C5A"/>
<path d="M25.3589 21.9537L18.8047 21.7145L18.6926 24.7866L25.2468 25.0258L25.3589 21.9537Z" fill="#221C5A"/>
<path d="M26.46 23.5497C26.4908 22.7055 25.9917 22.002 25.3452 21.9784C24.6988 21.9548 24.1497 22.62 24.1189 23.4643C24.0881 24.3085 24.5872 25.0121 25.2337 25.0356C25.8801 25.0592 26.4292 24.394 26.46 23.5497Z" fill="#27218F"/>
<path d="M25.3397 22.4746C25.7178 22.4895 26.0168 22.9738 25.997 23.5323C25.9773 24.0933 25.6412 24.5529 25.2631 24.5405C24.885 24.5257 24.586 24.0414 24.6058 23.4829C24.6255 22.9244 24.9616 22.4623 25.3397 22.4746ZM25.3446 22.3017C24.8652 22.2844 24.455 22.8107 24.4303 23.4779C24.4056 24.1427 24.7763 24.6987 25.2557 24.716C25.7351 24.7333 26.1453 24.2069 26.17 23.5397C26.1947 22.875 25.824 22.319 25.3446 22.3017Z" fill="#A2FDFA"/>
<path d="M24.4822 42.7086L24.539 41.1666L19.8166 40.9936C17.7556 40.6328 15.1634 40.3684 12.3388 40.2646C9.51675 40.1608 6.91213 40.2349 4.82893 40.445L0.0620494 40.2695L0.000270163 41.9895C-0.0442109 43.1905 5.40966 44.3643 12.1807 44.6114C18.9517 44.8585 24.4772 44.085 24.5192 42.884C24.5192 42.8247 24.5069 42.763 24.4822 42.7036V42.7086Z" fill="#221C5A"/>
<path d="M24.5835 41.1666C24.539 42.3676 19.0159 43.141 12.2449 42.8939C5.47393 42.6468 0.0200591 41.473 0.0645402 40.272C0.109021 39.071 5.63209 38.2976 12.4031 38.5447C19.1741 38.7918 24.628 39.9656 24.5835 41.1666Z" fill="#27218F"/>
<path d="M12.2894 41.6583C8.36021 41.515 5.41952 41.0924 3.53896 40.66C3.24984 40.5933 3.26466 40.1781 3.55873 40.1336C5.46647 39.842 8.42941 39.6345 12.3586 39.7778C16.2877 39.9211 19.2284 40.3437 21.109 40.7761C21.3981 40.8429 21.3833 41.258 21.0892 41.3025C19.1815 41.5941 16.2185 41.8017 12.2894 41.6583Z" fill="#502B9C"/>
<path d="M3.83551 40.7267C5.72348 41.1345 8.55791 41.5224 12.2894 41.6583C16.0184 41.7943 18.8751 41.6163 20.7877 41.347C18.8998 40.9392 16.0653 40.5513 12.3339 40.4153C8.60486 40.2794 5.7482 40.4574 3.83551 40.7267Z" fill="#693FBD"/>
<path d="M21.1486 41.2827C21.1313 41.2753 21.1115 41.2654 21.0892 41.2605C19.2087 40.8305 16.268 40.4079 12.3388 40.2621C8.40966 40.1188 5.44673 40.3239 3.53899 40.618C3.51675 40.6205 3.49697 40.6279 3.47968 40.6353C3.49944 40.6452 3.51428 40.6551 3.53899 40.66C3.76387 40.7119 4.00357 40.7613 4.25563 40.8132C6.15596 40.576 8.86683 40.4326 12.3289 40.5587C15.7911 40.6847 18.4846 41.0282 20.3627 41.4038C20.6197 41.3717 20.8619 41.3396 21.0892 41.3025C21.1115 41.3 21.1288 41.2901 21.1486 41.2827Z" fill="#A2FDFA"/>
<path d="M0.0249947 41.3L0.0126343 41.6065C1.49039 42.758 6.97886 43.5438 12.2103 43.7366C17.3899 43.9269 22.8635 43.5537 24.4871 42.5356L24.497 42.2366C23.4542 43.0743 18.7713 43.7292 12.2202 43.4895C5.56536 43.2473 0.899789 42.2242 0.0249947 41.3Z" fill="#A2FDFA"/>
<path d="M25.137 6.71105L22.7276 18.7976L20.9533 27.6839C20.4072 30.417 17.7531 32.1888 15.02 31.6427L11.6222 30.9656C8.88906 30.4195 7.11723 27.7654 7.66336 25.0323L9.36106 16.5216L11.8471 4.05949C11.9583 3.49853 12.1609 2.97464 12.4327 2.50759C13.4879 0.696226 15.6107 -0.334252 17.7803 0.0982025L21.1782 0.775303C23.3874 1.21764 24.9739 3.03889 25.2062 5.1641C25.263 5.66822 25.2433 6.18717 25.137 6.70858V6.71105Z" fill="#693FBD"/>
<path d="M15.9813 21.2045L8.61479 20.258L8.41215 21.2786L15.6799 22.9639C15.6799 22.9639 15.5415 24.0661 15.2573 25.0496C16.5571 25.2498 19.2828 25.6476 21.3314 25.8008L22.1271 21.8099C19.8685 21.5727 16.9105 21.0809 16.0308 20.9746C16.0011 21.1229 15.9838 21.2045 15.9838 21.2045H15.9813ZM25.2038 5.1641C25.0901 4.13362 24.6576 3.17728 23.9929 2.41369C23.9583 2.40628 23.9237 2.40133 23.894 2.39639C23.2738 2.32473 18.9047 1.40051 18.9047 1.40051C18.9047 1.40051 19.4509 2.13939 19.4262 2.85603C19.399 3.57267 18.5464 8.61386 17.7853 12.3676C17.2861 14.8338 16.6634 17.8758 16.2927 19.6699C17.8718 19.8898 20.6049 20.258 22.3965 20.431L22.7227 18.7951L25.1321 6.70858C25.2384 6.18469 25.2556 5.66822 25.2013 5.1641H25.2038ZM14.642 26.3742C14.0217 27.0315 8.73588 26.0826 7.56949 25.8626C7.5596 26.1814 7.57937 26.4977 7.62879 26.8066C8.53077 27.0265 11.0464 27.6394 11.4344 27.6913C11.9113 27.7555 14.1848 28.3659 13.8561 29.5027C13.6214 30.3132 12.109 30.7135 11.2639 30.8742C11.38 30.9063 11.4962 30.9384 11.6173 30.9631L15.0151 31.6402C17.7482 32.1863 20.4047 30.4121 20.9484 27.6814L21.1115 26.8634L14.9608 25.8527C14.8644 26.0653 14.7556 26.2457 14.6395 26.3717L14.642 26.3742Z" fill="#502B9C"/>
<path d="M7.54724 20.7374L8.16998 18.585C8.16998 18.585 14.1008 19.9269 23.4739 20.7943L22.9476 23.043C22.9476 23.043 15.581 22.7045 7.54724 20.7374Z" fill="#27218F"/>
<path d="M23.4344 20.9697C22.1518 20.8709 19.4607 20.5842 19.4607 20.5842L18.6823 22.2522C15.0719 21.9384 9.30174 20.7819 7.63618 20.4384L7.54968 20.7374C15.5835 22.702 22.95 23.043 22.95 23.043L23.4368 20.9697H23.4344Z" fill="#221C5A"/>
<path d="M6.45251 26.1345L7.07525 23.9821C7.07525 23.9821 13.0061 25.3239 22.3792 26.1913L21.8528 28.4401C21.8528 28.4401 14.4863 28.1015 6.45251 26.1345Z" fill="#27218F"/>
<path d="M22.3372 26.3667C21.0547 26.2679 18.3636 25.9812 18.3636 25.9812L17.5851 27.6493C13.9748 27.3354 8.20458 26.1789 6.53901 25.8354L6.45251 26.1345C14.4863 28.099 21.8528 28.4401 21.8528 28.4401L22.3397 26.3667H22.3372Z" fill="#221C5A"/>
<path d="M16.2359 3.74318C16.226 3.98288 13.9797 15.7704 13.6634 16.5241C13.347 17.2802 12.9665 17.2654 12.9665 17.2654C11.6666 17.1023 9.97637 16.6798 9.35858 16.5167L11.8446 4.05455C11.9558 3.49359 12.1584 2.9697 12.4302 2.50265C13.4484 2.62621 15.3561 2.87827 15.7317 3.10067C16.2482 3.4071 16.2433 3.50347 16.2359 3.74071V3.74318Z" fill="#36196E"/>
<path d="M15.0201 5.12703C14.0217 4.86509 12.628 4.64763 11.7532 4.52407L11.6716 4.93675C12.5341 5.05784 13.9253 5.27283 14.9138 5.53231C14.9286 5.53725 14.9435 5.53972 14.9608 5.53972C15.0571 5.54219 15.1461 5.48041 15.1708 5.38404C15.2005 5.27283 15.1337 5.15669 15.0201 5.12703ZM15.2919 3.82473C14.3232 3.56525 12.9641 3.35768 12.0819 3.23906C12.0324 3.3725 11.9855 3.50595 11.9459 3.64433C12.8158 3.76048 14.217 3.97053 15.1832 4.23C15.198 4.23494 15.2153 4.23741 15.2301 4.23741C15.3265 4.23988 15.4155 4.1781 15.4402 4.08173C15.4698 3.97053 15.4031 3.85438 15.2919 3.82473ZM14.7482 6.42687C13.7351 6.1674 12.3611 5.94499 11.4962 5.81896L11.4146 6.23165C12.2697 6.35768 13.6387 6.57761 14.6469 6.83461C14.6618 6.83955 14.6766 6.83955 14.6914 6.84203C14.7878 6.8445 14.8767 6.78272 14.9015 6.68387C14.9311 6.5702 14.8619 6.45652 14.7507 6.42934L14.7482 6.42687ZM14.474 7.72918C13.4435 7.4697 12.0942 7.24483 11.2343 7.11385L11.1527 7.52654C12.0028 7.65504 13.3496 7.87992 14.3726 8.13692C14.3875 8.13939 14.4023 8.14186 14.4171 8.14433C14.5135 8.1468 14.6025 8.08255 14.6272 7.98618C14.6543 7.8725 14.5876 7.75883 14.474 7.73165V7.72918ZM14.2021 9.03148C13.1568 8.77448 11.8273 8.54466 10.9772 8.40875L10.8957 8.82143C11.7384 8.95488 13.0654 9.18222 14.1033 9.43923C14.1181 9.4417 14.1329 9.44417 14.1453 9.44417C14.2417 9.44664 14.3331 9.38239 14.3578 9.28354C14.385 9.16987 14.3158 9.05619 14.2046 9.02901L14.2021 9.03148ZM13.3866 12.9359C12.2993 12.6839 11.0291 12.4442 10.2013 12.2959L10.1197 12.7086C10.9426 12.8569 12.2104 13.0941 13.2927 13.3461C13.3051 13.3486 13.3199 13.3511 13.3323 13.3511C13.4311 13.3536 13.5201 13.2893 13.5448 13.188C13.572 13.0743 13.5003 12.9631 13.3866 12.9359ZM13.6585 11.6336C12.586 11.3791 11.296 11.1443 10.4583 10.9985L10.3767 11.4112C11.2071 11.5545 12.4945 11.7893 13.5621 12.0414C13.5769 12.0438 13.5893 12.0463 13.6041 12.0463C13.7029 12.0488 13.7919 11.9845 13.8166 11.8857C13.8438 11.772 13.7746 11.6608 13.6609 11.6336H13.6585ZM13.9303 10.3338C12.8726 10.0768 11.5629 9.8445 10.7178 9.70611L10.6362 10.1188C11.4739 10.2572 12.7787 10.4895 13.8314 10.744C13.8463 10.7465 13.8586 10.7489 13.8735 10.7489C13.9723 10.7514 14.0613 10.6872 14.086 10.5883C14.1132 10.4746 14.044 10.361 13.9303 10.3338ZM12.8454 15.5405C11.7334 15.291 10.4978 15.0463 9.68482 14.8906L9.60327 15.3033C10.4138 15.459 11.6445 15.7012 12.754 15.9508C12.7664 15.9532 12.7787 15.9557 12.7936 15.9557C12.8924 15.9582 12.9838 15.8915 13.0061 15.7926C13.0308 15.6789 12.9591 15.5677 12.8479 15.5405H12.8454ZM13.1148 14.2382C12.0151 13.9862 10.7622 13.7465 9.94182 13.5933L9.86028 14.0059C10.6758 14.1567 11.9262 14.3989 13.0209 14.6485C13.0333 14.6509 13.0481 14.6534 13.0604 14.6534C13.1593 14.6559 13.2507 14.5891 13.273 14.4903C13.2977 14.3766 13.2285 14.2654 13.1148 14.2382Z" fill="#E046E3"/>
<path d="M25.137 6.71105L22.7277 18.7975C21.7466 18.6641 17.9756 18.1501 17.773 18.0191C17.5407 17.8684 17.4517 17.6707 17.516 17.1962C17.5827 16.7193 19.8833 4.79095 20.039 4.55619C20.1898 4.3239 20.343 4.08914 20.6272 4.14845C20.8842 4.20282 23.7334 4.62538 25.2062 5.16904C25.2631 5.67316 25.2433 6.19211 25.137 6.71352V6.71105Z" fill="#36196E"/>
<path d="M19.572 11.819C19.5547 11.9326 19.6337 12.0414 19.7499 12.0562C19.7795 12.0611 22.5794 12.4689 23.9336 12.7432L24.0151 12.3305C22.656 12.0537 19.9352 11.6583 19.8092 11.641C19.6955 11.6237 19.5868 11.7053 19.572 11.819ZM19.3249 13.0669C19.3076 13.1806 19.3866 13.2893 19.5028 13.3041C19.5324 13.3091 22.2556 13.702 23.6865 13.9887L23.768 13.576C22.3224 13.2868 19.5942 12.8915 19.5645 12.8865C19.4484 12.8692 19.3422 12.9508 19.3273 13.0644L19.3249 13.0669ZM19.0753 14.3148C19.058 14.4285 19.1395 14.5373 19.2532 14.5521C19.2804 14.557 21.9221 14.9351 23.4344 15.2341L23.5159 14.8214C21.9912 14.5175 19.3397 14.1394 19.3125 14.1345C19.1988 14.1172 19.0901 14.1987 19.0753 14.3124V14.3148ZM18.581 16.8107C18.5662 16.9244 18.6453 17.0307 18.7589 17.048C18.7861 17.0504 21.2474 17.3989 22.9377 17.7275L23.0192 17.3148C21.3166 16.9837 18.843 16.6353 18.8158 16.6303C18.6996 16.6155 18.5959 16.6946 18.5786 16.8083L18.581 16.8107ZM18.8281 15.5628C18.8108 15.6765 18.8924 15.7827 19.0061 15.8C19.0332 15.805 21.586 16.1682 23.1873 16.4821L23.2688 16.0694C21.6576 15.7531 19.0925 15.3873 19.0654 15.3849C18.9467 15.3651 18.843 15.4491 18.8281 15.5628ZM20.5629 6.8272C20.5456 6.94087 20.6247 7.04961 20.7408 7.0669C20.7754 7.07185 23.8051 7.52407 24.9295 7.75636L25.011 7.34367C23.8619 7.10644 20.941 6.67152 20.8026 6.64928C20.6889 6.63445 20.5802 6.71105 20.5629 6.8272ZM21.0497 5.40381C20.9336 5.38651 20.8273 5.46558 20.81 5.58173C20.7927 5.6954 20.8718 5.80414 20.9879 5.82143C22.1593 5.99689 24.3042 6.33049 25.1692 6.51089C25.1914 6.37003 25.2087 6.23165 25.2186 6.09326C24.067 5.8585 21.1906 5.42852 21.0497 5.40628V5.40381ZM20.3158 8.07514C20.2985 8.18881 20.3776 8.29755 20.4937 8.31237C20.5283 8.31732 23.511 8.75965 24.6799 9.00183L24.7614 8.58914C23.5753 8.3445 20.6889 7.91699 20.553 7.89722C20.4369 7.87992 20.3306 7.95899 20.3133 8.07514H20.3158ZM19.8191 10.571C19.8018 10.6847 19.8809 10.7934 19.997 10.8083C20.0291 10.8132 22.8957 11.2333 24.1807 11.4952L24.2622 11.0826C22.9698 10.8181 20.1848 10.4104 20.0563 10.3906C19.9402 10.3733 19.8339 10.4524 19.8191 10.5686V10.571ZM20.0662 9.32308C20.0489 9.43676 20.128 9.54549 20.2441 9.56031C20.2762 9.56526 23.2046 9.99771 24.4303 10.2473L24.5118 9.83461C23.2762 9.58008 20.4369 9.16245 20.3059 9.14269C20.1947 9.12786 20.0835 9.20446 20.0687 9.32061L20.0662 9.32308Z" fill="#E046E3"/>
</g>
</svg>
