<svg width="27" height="33" viewBox="0 0 27 33" fill="none" xmlns="http://www.w3.org/2000/svg">
<g opacity="0.5">
<path d="M11.6632 19.1981C10.8076 15.771 7.79797 11.4836 6.99936 11.1983C6.20075 10.9131 5.34281 11.6113 5.08497 11.5543C4.82714 11.4973 1.97268 8.32564 1.14669 7.43804C0.781609 7.04786 0.53518 6.61433 0.375458 6.25381C0.322978 6.26751 0.281907 6.29032 0.261371 6.32455C0.00353447 6.75352 0.158704 9.32276 0.487275 10.151C0.815846 10.9793 3.02685 14.7373 4.08102 17.7515C5.13518 20.7657 5.34738 23.8072 5.74668 24.6789C6.14599 25.5505 7.68845 26.6229 8.43001 27.166C9.17158 27.709 9.97246 27.7524 9.97246 27.7524C9.97246 27.7524 10.422 27.8299 10.9627 27.8254C12.3637 25.4159 12.4641 22.4085 11.6632 19.1981Z" fill="#27218F"/>
<path d="M11.6632 19.1981C10.8076 15.771 7.79796 11.4836 6.99935 11.1983C6.20074 10.9131 5.3428 11.6113 5.08497 11.5543C4.82713 11.4973 1.97267 8.32563 1.14668 7.43804C0.43706 6.67822 0.179223 5.76552 0.119898 5.51909C-0.0147248 5.90014 0.0172312 6.50937 0.459889 7.3673C1.04401 8.49676 4.5556 11.8692 4.5556 11.8692C4.5556 11.8692 4.72673 12.4328 4.85451 12.7043C4.98229 12.9758 5.72385 13.7607 6.92405 15.4059C8.12196 17.0487 9.12821 19.0133 9.44765 20.177C9.51839 20.4303 11.4601 20.8273 11.4601 20.8273C12.4276 25.6828 9.97018 27.7524 9.97018 27.7524L10.6547 28.3091C12.3409 25.8243 12.5143 22.6253 11.6609 19.1981H11.6632Z" fill="#A2FDFA"/>
<path d="M10.657 28.3091C10.657 28.3091 11.0129 29.0096 11.8982 29.6371C12.7835 30.2668 17.1942 31.896 17.8376 32.0398C18.4811 32.1835 22.6521 30.657 24.0097 29.774C25.3673 28.8887 26.0519 28.2338 26.1979 26.3765C26.3417 24.5191 26.8299 20.3938 24.1786 15.107C21.5249 9.82017 21.0115 8.97821 17.5729 4.919C14.1344 0.85978 13.678 0.732003 12.9775 0.36008C12.277 -0.0118441 6.53614 -0.157876 5.23783 0.225456C3.93952 0.608788 0.580803 1.9938 0.106201 5.44836C0.106201 5.44836 0.320684 6.54816 1.14667 7.43347C1.97266 8.31879 4.8294 11.4927 5.08496 11.5497C5.3428 11.6068 6.19845 10.9086 6.99934 11.1938C7.80023 11.479 10.8098 15.7664 11.6632 19.1936C12.5189 22.6207 12.3432 25.8197 10.657 28.3046V28.3091Z" fill="#27218F"/>
<path d="M17.5707 4.92128C14.1321 0.862065 13.6757 0.734287 12.9752 0.362363C12.2748 -0.00956014 6.5339 -0.155591 5.23559 0.227742C3.93728 0.611074 0.578545 1.99609 0.103943 5.45064C0.103943 5.45064 0.31844 6.55044 1.14443 7.43576C1.9727 8.32107 4.82715 11.495 5.0827 11.552C5.34054 11.6091 6.19619 10.9108 6.99709 11.1961C7.05185 11.2166 7.1203 11.2577 7.1956 11.3147L9.7694 10.8698C9.7694 10.8698 13.6324 10.4226 14.0682 10.2218C14.504 10.021 17.0892 8.95312 17.5547 8.74548C17.9677 8.56066 19.3253 8.1431 20.0144 7.91036C19.3732 7.06383 18.6043 6.13517 17.5707 4.91672V4.92128Z" fill="#3E28BB"/>
<path d="M14.5382 10.0689L14.812 9.97761C14.1321 8.53099 12.382 6.62346 12.382 6.62346C12.382 6.62346 12.5417 6.35649 12.5645 6.25838C12.5851 6.16255 12.0466 5.27267 11.6861 4.83914C11.3255 4.40561 9.13279 2.26762 8.8065 2.1444C8.48021 2.02119 7.90749 2.18775 7.90749 2.18775C7.14311 1.31841 5.79232 0.567719 5.16712 0.250557C5.02794 0.29391 4.86822 0.34639 4.69025 0.41256C5.83796 0.889444 7.66564 2.25621 7.59034 2.3817C7.51048 2.51632 7.34847 2.69202 7.33478 2.8198C7.27089 3.39251 11.159 6.93149 11.2502 6.93149C11.3415 6.93149 12.0831 6.72385 12.0831 6.72385C13.1464 7.70957 14.5359 10.0712 14.5359 10.0712L14.5382 10.0689Z" fill="#A2FDFA"/>
<path d="M19.8752 7.73238C19.2272 7.94002 17.4269 8.53556 15.9643 9.24289C14.2302 10.0826 12.4915 10.5138 10.1527 10.6895C8.22007 10.8355 7.07008 11.0706 6.74835 11.1413C6.83049 11.1527 6.91491 11.1687 6.99705 11.1983C7.08604 11.2303 7.20698 11.3147 7.34617 11.4425C7.90976 11.3421 8.86581 11.1983 10.1847 11.098C11.3803 11.009 12.423 10.8515 13.3882 10.6119C14.3579 10.3701 15.2501 10.0438 16.1423 9.61254C17.7053 8.85728 19.6698 8.22752 20.1376 8.08149C20.0509 7.9674 19.9642 7.85103 19.8729 7.73467L19.8752 7.73238Z" fill="#221C5A"/>
<path d="M17.5707 4.92128C15.2707 2.206 14.3055 1.25224 13.7077 0.805016C15.4076 2.92703 18.675 7.20986 20.1992 9.50073C22.0178 12.2343 24.3497 17.2039 23.7702 17.9865C23.1906 18.7692 20.1171 19.7617 18.5541 19.3327C16.9911 18.9038 15.9849 16.8776 15.5582 16.0744C15.1292 15.2712 12.6695 12.5172 12.5828 12.7203C12.4961 12.9233 14.1024 14.6164 14.787 15.9033C15.4715 17.1902 16.6466 20.9916 16.7219 22.566C16.7949 24.1404 16.4914 29.8607 15.6449 30.2988C14.7984 30.7369 13.0528 30.1254 13.0528 30.1254L14.3146 30.7665C15.8069 31.3689 17.4657 31.9599 17.8399 32.042C18.4834 32.1858 22.6544 30.6593 24.012 29.7763C25.3697 28.891 26.0542 28.2361 26.2002 26.3788C26.344 24.5214 26.8323 20.396 24.1809 15.1092C21.5272 9.82245 21.0138 8.98049 17.5752 4.92128H17.5707Z" fill="#221C5A"/>
<path d="M19.2865 25.0736C18.7549 25.2059 18.4217 25.2721 18.3784 25.2812C18.1936 25.3178 18.0133 25.1968 17.9768 25.012C17.9403 24.8272 18.0544 24.6492 18.246 24.6104C18.2803 24.6036 21.6527 23.9305 24.7787 22.3538C24.9498 22.2671 25.1529 22.3355 25.2396 22.5044C25.324 22.6732 25.2578 22.8786 25.089 22.9653C22.8415 24.0993 20.5255 24.7679 19.2865 25.0759V25.0736Z" fill="#E046E3"/>
<path d="M19.1131 27.385C18.6796 27.4923 18.4126 27.5493 18.3738 27.5561C18.189 27.5949 18.0088 27.4763 17.97 27.2892C17.9312 27.1044 18.043 26.9218 18.2369 26.8853C18.2712 26.8785 21.7531 26.1483 24.8791 24.5693C25.0502 24.4849 25.2533 24.5511 25.34 24.7199C25.4244 24.8888 25.3583 25.0941 25.1894 25.1808C22.8232 26.3742 20.3247 27.0815 19.1154 27.3827L19.1131 27.385Z" fill="#E046E3"/>
<path d="M19.2569 29.6325C18.7321 29.7626 18.4035 29.8288 18.3624 29.8356C18.1776 29.8721 17.9973 29.7512 17.9608 29.5664C17.9243 29.3815 18.0475 29.199 18.2301 29.1648C18.262 29.1579 21.5797 28.4985 24.7056 26.9218C24.8768 26.8351 25.0799 26.9036 25.1666 27.0724C25.251 27.2413 25.1848 27.4466 25.016 27.5333C22.7685 28.6673 20.4799 29.3291 19.2569 29.6325Z" fill="#E046E3"/>
<path d="M5.84027 11.7346C5.84027 11.7346 6.44493 11.6319 6.54077 11.6524C6.6366 11.6729 8.91378 14.5753 8.96397 14.767C9.01417 14.9587 8.42092 15.3169 8.24067 15.4104C8.06041 15.5017 7.52648 15.6774 7.52648 15.6774L5.84027 11.7346Z" fill="#693FBD"/>
<path d="M7.52644 15.6797C7.52644 15.6797 6.0319 13.4208 5.05988 12.3643C5.05988 12.3643 5.52763 11.819 5.84023 11.7368C6.15283 11.657 7.59033 13.8087 8.45739 15.0454C8.45739 15.0454 8.29538 15.4812 7.52644 15.6797Z" fill="#36196E"/>
<path d="M8.87494 15.504C8.87494 15.504 9.36324 15.4059 9.44994 15.4584C9.53437 15.5086 11.0152 18.4452 11.3027 19.2187C11.3027 19.2187 11.3712 19.4902 11.1612 19.6157C10.9513 19.7412 10.2326 20.0675 9.80818 19.9557V18.4566L8.87494 15.5063V15.504Z" fill="#693FBD"/>
<path d="M9.8082 19.9534C9.8082 19.9534 8.72438 17.2929 7.93262 15.9946C7.93262 15.9946 8.5327 15.5245 8.87496 15.504C9.21722 15.4857 10.2646 18.0207 10.908 19.4856C10.908 19.4856 10.6502 19.9055 9.8082 19.9534Z" fill="#36196E"/>
<path d="M16.1742 29.418C16.1583 29.4226 16.14 29.4226 16.1217 29.418C16.0601 29.4043 16.0213 29.3427 16.035 29.2811C16.035 29.272 16.2153 28.4688 16.3522 27.2116C16.359 27.15 16.4161 27.1044 16.4777 27.1112C16.5393 27.118 16.5849 27.1751 16.5781 27.2367C16.4389 28.5076 16.2609 29.3222 16.2587 29.3313C16.2495 29.3747 16.2153 29.4066 16.1742 29.418Z" fill="#3E28BB"/>
<path d="M16.5622 26.6047C16.5507 26.6069 16.5371 26.6092 16.5256 26.6069C16.4618 26.6024 16.4161 26.5476 16.4207 26.4837C16.5713 24.656 16.5371 22.8991 16.3226 21.2608C16.0077 18.8741 15.2593 17.0442 14.6843 15.9307C14.6546 15.8736 14.6774 15.8052 14.7322 15.7778C14.7915 15.7481 14.8577 15.7709 14.8851 15.828C15.4669 16.9575 16.229 18.8125 16.5462 21.2312C16.763 22.8854 16.7972 24.6583 16.6466 26.502C16.642 26.5522 16.6078 26.591 16.5599 26.6024L16.5622 26.6047Z" fill="#3E28BB"/>
<path d="M14.4607 15.3465C14.4128 15.358 14.3603 15.3374 14.3352 15.2941C13.9336 14.6095 13.6324 14.2422 13.6278 14.2399C13.5868 14.192 13.5936 14.119 13.6438 14.0802C13.6917 14.0414 13.7648 14.046 13.8035 14.0939C13.8172 14.1098 14.1207 14.4772 14.5314 15.18C14.5634 15.2347 14.5451 15.3032 14.4904 15.3351C14.4812 15.3397 14.4698 15.3443 14.4607 15.3465Z" fill="#3E28BB"/>
<path d="M7.66107 2.781C7.66107 2.781 8.27257 2.37029 8.7814 2.22198C9.29023 2.07367 10.0774 2.03488 10.7688 3.0685C11.4579 4.10213 12.0306 5.21106 12.0945 6.1055L11.2867 6.60977C11.2867 6.60977 10.6159 4.56076 10.0341 3.9561C9.44995 3.35144 7.66334 2.781 7.66334 2.781H7.66107Z" fill="#36196E"/>
<path d="M7.66107 2.781C7.66107 2.781 9.78764 4.49687 11.2867 6.60976C11.2867 6.60976 10.6114 1.469 7.66107 2.781Z" fill="#693FBD"/>
<path d="M9.72146 25.7787C9.69636 25.7855 9.67126 25.7832 9.64616 25.7718C8.14706 25.0873 6.64339 23.9692 6.62742 23.9578C6.57722 23.919 6.56582 23.8483 6.60461 23.7981C6.64112 23.7479 6.71412 23.7365 6.76432 23.7753C6.77801 23.7867 8.26343 24.8911 9.742 25.5642C9.79905 25.5893 9.82414 25.6577 9.79905 25.7148C9.78307 25.7467 9.75569 25.7695 9.72374 25.7787H9.72146Z" fill="#E046E3"/>
<path d="M10.2006 24.2933C10.1824 24.2978 10.1641 24.2978 10.1436 24.2933C8.65815 23.9076 6.87383 23.1068 6.85558 23.0999C6.79854 23.0748 6.77344 23.0064 6.79854 22.9493C6.82364 22.8923 6.89208 22.8672 6.94913 22.8923C6.96738 22.9014 8.73573 23.6932 10.2006 24.0742C10.2622 24.0902 10.2987 24.1518 10.2828 24.2134C10.2713 24.2545 10.2394 24.2864 10.2006 24.2955V24.2933Z" fill="#E046E3"/>
<path d="M10.1391 22.5797C10.1254 22.5819 10.1117 22.5842 10.0957 22.5819C8.44372 22.3606 7.02219 21.9522 7.0085 21.9476C6.94689 21.9294 6.91268 21.8678 6.93093 21.8062C6.94918 21.7445 7.01079 21.7103 7.0724 21.7286C7.08609 21.7331 8.48936 22.137 10.1254 22.3561C10.187 22.3652 10.2326 22.4222 10.2235 22.4838C10.2166 22.5317 10.1824 22.5683 10.1391 22.5797Z" fill="#E046E3"/>
<path d="M5.81292 9.97305C5.78326 9.9799 5.7536 9.97305 5.73078 9.95024C5.7034 9.92057 2.94706 7.07752 1.93625 5.92981C1.9043 5.8933 1.90887 5.84082 1.9431 5.80888C1.97732 5.77921 2.03208 5.7815 2.06402 5.81572C3.07255 6.96116 5.82661 9.80192 5.85399 9.83158C5.88593 9.86581 5.88593 9.92057 5.85399 9.95252C5.84258 9.96393 5.82889 9.97077 5.8152 9.97305H5.81292Z" fill="#7465D1"/>
<path d="M1.52321 5.28179C1.48442 5.29092 1.44563 5.27495 1.42738 5.23844C1.13075 4.6566 1.08054 3.9812 1.06001 3.72565C1.05772 3.68229 1.05545 3.65263 1.05317 3.63894C1.04404 3.5933 1.0737 3.55223 1.11705 3.53854C1.16268 3.52941 1.20832 3.55451 1.21745 3.60015C1.22201 3.61384 1.2243 3.65491 1.22887 3.71424C1.24712 3.96066 1.29731 4.61096 1.57797 5.16086C1.5985 5.20193 1.58254 5.25441 1.54146 5.27495C1.53462 5.27723 1.53005 5.27951 1.52321 5.28179Z" fill="#7465D1"/>
</g>
</svg>
