<svg width="30" height="30" viewBox="0 0 30 30" fill="none" xmlns="http://www.w3.org/2000/svg">
<defs>
    <g id="vk">
      <g clip-path="url(#clip0_569_3719)">
      <path fill-rule="evenodd" clip-rule="evenodd" d="M15 30C23.2843 30 30 23.2843 30 15C30 6.71572 23.2843 0 15 0C6.71572 0 0 6.71572 0 15C0 23.2843 6.71572 30 15 30Z" fill="#3FCBFF"/>
      <path fill-rule="evenodd" clip-rule="evenodd" d="M23.6959 11.7091C23.8393 12.1013 23.3898 13.0196 22.2609 14.5216C20.4051 16.9897 20.2042 16.7601 21.7347 18.1854C23.208 19.5534 23.5142 20.2135 23.562 20.2997C23.562 20.2997 24.1742 21.3711 22.8828 21.3806L20.4338 21.4189C19.9076 21.5241 19.2093 21.0458 19.2093 21.0458C18.2908 20.4144 17.43 18.7786 16.7603 18.989C16.7603 18.989 16.0715 19.2091 16.0907 20.6823C16.1002 20.9979 15.9471 21.1702 15.9471 21.1702C15.9471 21.1702 15.7749 21.3519 15.4401 21.3806H14.34C11.9197 21.5336 9.78642 19.3047 9.78642 19.3047C9.78642 19.3047 7.45224 16.894 5.40504 12.0821C5.27111 11.7665 5.41461 11.6134 5.41461 11.6134C5.41461 11.6134 5.55811 11.4317 5.95989 11.4317L8.58107 11.4125C8.82979 11.4507 9.00199 11.5847 9.00199 11.5847C9.00199 11.5847 9.15504 11.6899 9.23157 11.8908C9.66206 12.9622 10.2169 13.9381 10.2169 13.9381C11.1736 15.9086 11.824 16.2435 12.1971 16.0426C12.1971 16.0426 12.685 15.7461 12.5798 13.364C12.5416 12.5031 12.3024 12.1108 12.3024 12.1108C12.0823 11.8143 11.671 11.7281 11.4892 11.6995C11.3457 11.6803 11.5849 11.336 11.9006 11.1829C12.3694 10.9533 13.2016 10.9437 14.187 10.9533C14.9618 10.9629 15.1819 11.0107 15.4783 11.0777C16.3872 11.2977 16.081 12.1396 16.081 14.1676C16.081 14.8181 15.9567 15.7269 16.4255 16.0235C16.6264 16.1574 17.1238 16.0426 18.3483 13.9571C18.3483 13.9571 18.9222 12.9622 19.3719 11.8047C19.4484 11.5942 19.6111 11.5082 19.6111 11.5082C19.6111 11.5082 19.7642 11.422 19.9746 11.4507L22.7297 11.4317C23.562 11.3263 23.6959 11.7091 23.6959 11.7091Z" fill="white"/>
      </g>
      <defs>
      <clipPath id="clip0_569_3719">
      <rect width="30" height="30" fill="white"/>
      </clipPath>
      </defs>
    </g>
    <g id="vkBlack">
      <g clip-path="url(#clip0_569_3719)">
      <path fill-rule="evenodd" clip-rule="evenodd" d="M15 30C23.2843 30 30 23.2843 30 15C30 6.71572 23.2843 0 15 0C6.71572 0 0 6.71572 0 15C0 23.2843 6.71572 30 15 30Z" fill="000000"/>
      <path fill-rule="evenodd" clip-rule="evenodd" d="M23.6959 11.7091C23.8393 12.1013 23.3898 13.0196 22.2609 14.5216C20.4051 16.9897 20.2042 16.7601 21.7347 18.1854C23.208 19.5534 23.5142 20.2135 23.562 20.2997C23.562 20.2997 24.1742 21.3711 22.8828 21.3806L20.4338 21.4189C19.9076 21.5241 19.2093 21.0458 19.2093 21.0458C18.2908 20.4144 17.43 18.7786 16.7603 18.989C16.7603 18.989 16.0715 19.2091 16.0907 20.6823C16.1002 20.9979 15.9471 21.1702 15.9471 21.1702C15.9471 21.1702 15.7749 21.3519 15.4401 21.3806H14.34C11.9197 21.5336 9.78642 19.3047 9.78642 19.3047C9.78642 19.3047 7.45224 16.894 5.40504 12.0821C5.27111 11.7665 5.41461 11.6134 5.41461 11.6134C5.41461 11.6134 5.55811 11.4317 5.95989 11.4317L8.58107 11.4125C8.82979 11.4507 9.00199 11.5847 9.00199 11.5847C9.00199 11.5847 9.15504 11.6899 9.23157 11.8908C9.66206 12.9622 10.2169 13.9381 10.2169 13.9381C11.1736 15.9086 11.824 16.2435 12.1971 16.0426C12.1971 16.0426 12.685 15.7461 12.5798 13.364C12.5416 12.5031 12.3024 12.1108 12.3024 12.1108C12.0823 11.8143 11.671 11.7281 11.4892 11.6995C11.3457 11.6803 11.5849 11.336 11.9006 11.1829C12.3694 10.9533 13.2016 10.9437 14.187 10.9533C14.9618 10.9629 15.1819 11.0107 15.4783 11.0777C16.3872 11.2977 16.081 12.1396 16.081 14.1676C16.081 14.8181 15.9567 15.7269 16.4255 16.0235C16.6264 16.1574 17.1238 16.0426 18.3483 13.9571C18.3483 13.9571 18.9222 12.9622 19.3719 11.8047C19.4484 11.5942 19.6111 11.5082 19.6111 11.5082C19.6111 11.5082 19.7642 11.422 19.9746 11.4507L22.7297 11.4317C23.562 11.3263 23.6959 11.7091 23.6959 11.7091Z" fill="white"/>
      </g>
      <defs>
      <clipPath id="clip0_569_3719">
      <rect width="30" height="30" fill="white"/>
      </clipPath>
      </defs>
    </g>
</defs>
</svg>
