<svg width="30" height="30" viewBox="0 0 30 30" fill="none" xmlns="http://www.w3.org/2000/svg">
<path fill-rule="evenodd" clip-rule="evenodd" d="M15 29C22.732 29 29 22.732 29 15C29 7.26801 22.732 1 15 1C7.26801 1 1 7.26801 1 15C1 22.732 7.26801 29 15 29Z" stroke="#48494F"/>
<path fill-rule="evenodd" clip-rule="evenodd" d="M8.527 10.984L6.483 11.838V10.55L9.227 9.402H9.941V20H8.527V10.984ZM15.205 20.14C14.6543 20.14 14.162 20.07 13.728 19.93C13.294 19.79 12.9253 19.587 12.622 19.321C12.3187 19.055 12.0877 18.733 11.929 18.355C11.7703 17.977 11.691 17.55 11.691 17.074C11.691 16.4487 11.859 15.898 12.195 15.422C12.531 14.946 13.0257 14.6007 13.679 14.386V14.274C13.4083 14.19 13.1727 14.071 12.972 13.917C12.7713 13.763 12.608 13.588 12.482 13.392C12.356 13.196 12.2627 12.9813 12.202 12.748C12.1413 12.5147 12.111 12.2767 12.111 12.034C12.111 11.6607 12.1787 11.3107 12.314 10.984C12.4493 10.6573 12.6477 10.375 12.909 10.137C13.1703 9.899 13.4923 9.71 13.875 9.57C14.2577 9.43 14.701 9.36 15.205 9.36C15.709 9.36 16.1523 9.43 16.535 9.57C16.9177 9.71 17.2397 9.899 17.501 10.137C17.7623 10.375 17.9583 10.655 18.089 10.977C18.2197 11.299 18.285 11.6467 18.285 12.02C18.285 12.5147 18.159 12.972 17.907 13.392C17.655 13.812 17.2583 14.106 16.717 14.274V14.386C17.3703 14.6007 17.865 14.9437 18.201 15.415C18.537 15.8863 18.705 16.4347 18.705 17.06C18.705 18.0213 18.4017 18.775 17.795 19.321C17.1883 19.867 16.325 20.14 15.205 20.14ZM15.205 13.812C15.6903 13.812 16.0777 13.679 16.367 13.413C16.6563 13.147 16.801 12.7387 16.801 12.188C16.801 11.656 16.6563 11.2407 16.367 10.942C16.0777 10.6433 15.6903 10.494 15.205 10.494C14.701 10.494 14.3067 10.6433 14.022 10.942C13.7373 11.2407 13.595 11.656 13.595 12.188C13.595 12.7387 13.7397 13.147 14.029 13.413C14.3183 13.679 14.7103 13.812 15.205 13.812ZM15.205 19.006C15.849 19.006 16.346 18.824 16.696 18.46C17.046 18.096 17.221 17.6107 17.221 17.004C17.221 16.36 17.046 15.8607 16.696 15.506C16.346 15.1513 15.849 14.974 15.205 14.974C14.561 14.974 14.0617 15.1513 13.707 15.506C13.3523 15.8607 13.175 16.36 13.175 17.004C13.175 17.6107 13.3523 18.096 13.707 18.46C14.0617 18.824 14.561 19.006 15.205 19.006ZM23.577 15.59V18.166H22.443V15.59H20.091V14.484H22.443V12.02H23.577V14.484H25.915V15.59H23.577Z" fill="#48494F"/>
</svg>
