<svg width="30" height="30" viewBox="0 0 30 30" fill="none" xmlns="http://www.w3.org/2000/svg">
  <defs>
    <g id="youtube">
      <g clip-path="url(#clip0_569_4122)" id="youtube">
        <path fill-rule="evenodd" clip-rule="evenodd" d="M15 30C23.2843 30 30 23.2843 30 15C30 6.71572 23.2843 0 15 0C6.71572 0 0 6.71572 0 15C0 23.2843 6.71572 30 15 30Z" fill="#F5961E"/>
        <g clip-path="url(#clip1_569_4122)">
        <path d="M23.324 10.2681C22.8422 9.41102 22.3193 9.25337 21.2546 9.19342C20.191 9.12126 17.5166 9.09128 15.1996 9.09128C12.8782 9.09128 10.2026 9.12126 9.14014 9.19231C8.07768 9.25337 7.55367 9.40991 7.0674 10.2681C6.57114 11.1241 6.3158 12.5984 6.3158 15.194C6.3158 15.1963 6.3158 15.1974 6.3158 15.1974C6.3158 15.1996 6.3158 15.2007 6.3158 15.2007V15.2029C6.3158 17.7875 6.57114 19.2729 7.0674 20.12C7.55367 20.9771 8.07657 21.1325 9.13903 21.2046C10.2026 21.2668 12.8782 21.3035 15.1996 21.3035C17.5166 21.3035 20.191 21.2668 21.2557 21.2058C22.3204 21.1336 22.8433 20.9782 23.3251 20.1211C23.8258 19.274 24.079 17.7886 24.079 15.204C24.079 15.204 24.079 15.2007 24.079 15.1985C24.079 15.1985 24.079 15.1963 24.079 15.1951C24.079 12.5984 23.8258 11.1241 23.324 10.2681ZM12.977 18.528V11.8668L18.528 15.1974L12.977 18.528Z" fill="white"/>
        </g>
        </g>
        <defs>
        <clipPath id="clip0_569_4122">
        <rect width="30" height="30" fill="white"/>
        </clipPath>
        <clipPath id="clip1_569_4122">
        <rect width="17.7632" height="17.7632" fill="white" transform="translate(6.3158 6.31579)"/>
        </clipPath>
        </defs>
    </g>
    <g id="youtubeBlack">
      <g clip-path="url(#clip0_569_4122)" id="youtube">
        <path fill-rule="evenodd" clip-rule="evenodd" d="M15 30C23.2843 30 30 23.2843 30 15C30 6.71572 23.2843 0 15 0C6.71572 0 0 6.71572 0 15C0 23.2843 6.71572 30 15 30Z" fill="#000000"/>
        <g clip-path="url(#clip1_569_4122)">
        <path d="M23.324 10.2681C22.8422 9.41102 22.3193 9.25337 21.2546 9.19342C20.191 9.12126 17.5166 9.09128 15.1996 9.09128C12.8782 9.09128 10.2026 9.12126 9.14014 9.19231C8.07768 9.25337 7.55367 9.40991 7.0674 10.2681C6.57114 11.1241 6.3158 12.5984 6.3158 15.194C6.3158 15.1963 6.3158 15.1974 6.3158 15.1974C6.3158 15.1996 6.3158 15.2007 6.3158 15.2007V15.2029C6.3158 17.7875 6.57114 19.2729 7.0674 20.12C7.55367 20.9771 8.07657 21.1325 9.13903 21.2046C10.2026 21.2668 12.8782 21.3035 15.1996 21.3035C17.5166 21.3035 20.191 21.2668 21.2557 21.2058C22.3204 21.1336 22.8433 20.9782 23.3251 20.1211C23.8258 19.274 24.079 17.7886 24.079 15.204C24.079 15.204 24.079 15.2007 24.079 15.1985C24.079 15.1985 24.079 15.1963 24.079 15.1951C24.079 12.5984 23.8258 11.1241 23.324 10.2681ZM12.977 18.528V11.8668L18.528 15.1974L12.977 18.528Z" fill="white"/>
        </g>
        </g>
        <defs>
        <clipPath id="clip0_569_4122">
        <rect width="30" height="30" fill="white"/>
        </clipPath>
        <clipPath id="clip1_569_4122">
        <rect width="17.7632" height="17.7632" fill="white" transform="translate(6.3158 6.31579)"/>
        </clipPath>
        </defs>
    </g>
  </defs>
</svg>
