<svg width="160" height="20" viewBox="0 0 160 20" fill="none" xmlns="http://www.w3.org/2000/svg">
<path d="M9.69998 3.66848C11.9299 3.8587 13.3514 5.51631 13.8253 7.01087L17.5046 5.35326C16.2224 2.58152 13.9925 0.163043 9.69998 0V3.66848ZM9.69998 20C14.2712 19.837 16.6962 16.9837 17.839 14.4293L13.9925 12.663C13.2957 14.7826 11.7626 16.1685 9.69998 16.3315V20ZM8.86377 16.3315C5.82556 16.087 4.23677 13.3152 4.23677 9.97283C4.23677 6.08696 6.21579 3.88587 8.86377 3.66848V0C4.98936 0.163043 0 2.66304 0 10C0 15.5163 3.2612 19.8098 8.86377 20V16.3315Z" fill="#1F2229"/>
<path d="M28.5921 11.8478L22.4042 0.489131H18.2789L24.5505 11.8478V19.5109H28.5921V11.8478ZM27.0033 7.28261L29.066 11.0598L34.9194 0.489131H30.8499L27.0033 7.28261Z" fill="#1F2229"/>
<path d="M41.7815 19.5109H45.7395C49.8091 19.5109 52.2898 17.3641 52.2898 13.9674C52.2898 11.7935 50.8683 9.78261 49.0565 9.40217V9.32065C50.5617 8.72283 51.6209 7.44565 51.6209 5.35326C51.6209 2.17391 49.0286 0.489131 45.6281 0.489131H41.7815V3.80435H45.0706C46.1855 3.80435 47.4956 4.13044 47.4956 5.70652C47.4956 7.17391 46.6315 8.0163 44.4852 8.0163H41.7815V11.1141H45.0706C46.6594 11.1141 48.1924 11.6848 48.1924 13.6957C48.1924 15.0815 46.9381 16.1413 45.3214 16.1413H41.7815V19.5109ZM40.9453 0.489131H36.8758V19.5109H40.9453V0.489131Z" fill="#1F2229"/>
<path d="M59.6924 4.02174H68.0266V0.489131H59.6924V4.02174ZM59.6924 11.5489H67.5806V8.09783H59.6924V11.5489ZM59.6924 19.5109H68.3889V15.9783H59.6924V19.5109ZM58.8562 0.489131H54.7867V19.5109H58.8562V0.489131Z" fill="#1F2229"/>
<path d="M76.079 9.42935V12.663H78.4761L82.3505 19.5109H86.8382L82.6014 12.038C84.5247 11.1957 86.002 9.59239 86.002 6.46739C86.002 2.63587 83.4376 0.489131 79.3959 0.489131H76.079V3.83152H79.2844C80.7338 3.83152 81.9324 4.70109 81.9324 6.54891C81.9324 8.61413 80.7617 9.42935 79.2844 9.42935H76.079ZM75.2428 0.489131H71.1732V19.5109H75.2428V0.489131Z" fill="#1F2229"/>
<path d="M96.4992 7.77174H93.1265V0.489131H89.0569V19.5109H93.1265V11.2772H96.4992V7.77174ZM97.3354 11.2772H100.736V19.5109H104.805V0.489131H100.736V7.77174H97.3354V11.2772Z" fill="#1F2229"/>
<path d="M113.044 4.02174H121.378V0.489131H113.044V4.02174ZM113.044 11.5489H120.932V8.09783H113.044V11.5489ZM113.044 19.5109H121.741V15.9783H113.044V19.5109ZM112.208 0.489131H108.138V19.5109H112.208V0.489131Z" fill="#1F2229"/>
<path d="M129.431 9.42935V12.663H131.828L135.702 19.5109H140.19L135.953 12.038C137.876 11.1957 139.354 9.59239 139.354 6.46739C139.354 2.63587 136.789 0.489131 132.748 0.489131H129.431V3.83152H132.636C134.085 3.83152 135.284 4.70109 135.284 6.54891C135.284 8.61413 134.113 9.42935 132.636 9.42935H129.431ZM128.594 0.489131H124.525V19.5109H128.594V0.489131Z" fill="#1F2229"/>
<path d="M151.136 3.66848C153.143 3.8587 155.763 5.38044 155.763 10C155.763 14.2663 153.422 16.1413 151.136 16.3315V20C155.429 19.837 160 16.9022 160 10C160 2.47283 154.843 0.163043 151.136 0V3.66848ZM150.3 0C146.426 0.163043 141.436 2.66304 141.436 10C141.436 16.712 145.896 19.8098 150.3 20V16.3315C147.959 16.1141 145.673 14.1576 145.673 10C145.673 5.46196 148.21 3.8587 150.3 3.66848V0Z" fill="#1F2229"/>
</svg>
